<svg width="258" height="90" viewBox="0 0 258 90" fill="none" xmlns="http://www.w3.org/2000/svg">
<g clip-path="url(#clip0_41_538)">
<path d="M122.322 36.4044H119.287V33.7752H109.473V21.6404H113.216V30.7415H117.264V21.6404H121.007V30.9438H122.322V36.4044ZM123.941 21.6404H133.958V24.2696H127.685V26.1909H133.452V28.6179H127.685V31.0449H134.16V33.7752H124.042V21.6404H123.941ZM136.184 21.6404H139.927V25.8876H143.974V21.6404H147.718V33.6741H143.974V28.8202H139.927V33.6741H136.184V21.6404ZM149.336 21.6404H160.668V24.6741H156.824V33.7752H153.08V24.6741H149.235V21.6404H149.336ZM162.287 21.6404H168.459C169.774 21.6404 170.786 21.9438 171.494 22.6516C172.202 23.2584 172.506 24.1685 172.506 25.382C172.506 26.5954 172.101 27.5055 171.393 28.2134C170.685 28.9213 169.572 29.2247 168.054 29.2247H166.031V33.6741H162.287V21.6404ZM166.031 26.7977H166.941C167.649 26.7977 168.155 26.6966 168.459 26.3932C168.762 26.1909 168.864 25.7864 168.864 25.4831C168.864 25.0786 168.762 24.7752 168.459 24.4718C168.256 24.1685 167.751 24.0673 167.042 24.0673H166.031V26.7977Z" fill="#F24E5E"/>
<path d="M109.473 46.3146C109.473 44.2921 109.979 42.7753 111.092 41.6629C112.205 40.5505 113.722 40.0449 115.645 40.0449C117.668 40.0449 119.186 40.5505 120.299 41.6629C121.412 42.7753 121.918 44.2921 121.918 46.2135C121.918 47.6292 121.715 48.7416 121.209 49.6517C120.704 50.5618 120.096 51.2696 119.186 51.7753C118.275 52.2809 117.162 52.4831 115.847 52.4831C114.532 52.4831 113.318 52.2809 112.508 51.8764C111.598 51.4719 110.889 50.764 110.384 49.8539C109.776 48.9438 109.473 47.7303 109.473 46.3146ZM113.216 46.3146C113.216 47.5281 113.419 48.4382 113.925 48.9438C114.329 49.4494 115.038 49.7528 115.746 49.7528C116.555 49.7528 117.162 49.4494 117.567 48.9438C117.972 48.4382 118.275 47.5281 118.275 46.1123C118.275 45 118.073 44.191 117.567 43.5842C117.061 43.0786 116.454 42.7753 115.746 42.7753C115.038 42.7753 114.431 43.0786 113.925 43.5842C113.419 44.191 113.216 45.1011 113.216 46.3146ZM136.791 55.0112H133.755V52.382H123.941V40.2472H127.685V49.3483H131.732V40.2472H135.475V49.5505H136.791V55.0112ZM138.612 40.2472H142.355V52.2809H138.612V40.2472ZM145.087 40.2472H148.831V44.4944H152.878V40.2472H156.621V52.2809H152.878V47.4269H148.831V52.2809H145.087V40.2472ZM164.209 44.4944C164.513 43.0786 165.221 41.9663 166.233 41.1573C167.245 40.4494 168.56 40.0449 170.179 40.0449C172.202 40.0449 173.72 40.5505 174.833 41.6629C175.946 42.7753 176.452 44.2921 176.452 46.2135C176.452 48.2359 175.946 49.8539 174.833 50.8651C173.72 51.9775 172.304 52.4831 170.28 52.4831C168.256 52.4831 166.739 51.9775 165.727 51.0674C164.715 50.0562 164.108 48.8427 164.007 47.4269H162.692V52.2809H158.948V40.2472H162.692V44.4944H164.209ZM170.28 49.7528C171.089 49.7528 171.696 49.4494 172.202 48.9438C172.607 48.4382 172.809 47.5281 172.809 46.1123C172.809 43.8876 172 42.7753 170.28 42.7753C168.661 42.7753 167.751 43.8876 167.751 46.2135C167.751 48.6404 168.56 49.7528 170.28 49.7528ZM178.576 40.2472H185.558C186.671 40.2472 187.581 40.5505 188.188 41.1573C188.795 41.764 189.099 42.4719 189.099 43.2809C189.099 43.9887 188.896 44.5955 188.391 45.1011C188.087 45.4045 187.682 45.7078 187.075 45.9101C187.986 46.1123 188.593 46.5168 188.998 47.0225C189.402 47.5281 189.605 48.1348 189.605 48.9438C189.605 49.5505 189.504 50.1573 189.2 50.6629C188.896 51.1685 188.492 51.573 187.986 51.8764C187.682 52.0786 187.176 52.1798 186.569 52.2809C185.76 52.382 185.153 52.4831 184.951 52.4831H178.475V40.2472H178.576ZM182.32 45H183.939C184.546 45 184.951 44.8989 185.153 44.6966C185.355 44.4944 185.456 44.191 185.456 43.7865C185.456 43.4831 185.355 43.1798 185.153 42.9775C184.951 42.7753 184.546 42.6741 183.939 42.6741H182.32V45ZM182.32 49.7528H184.242C184.849 49.7528 185.355 49.6517 185.558 49.4494C185.861 49.2472 185.962 48.9438 185.962 48.5393C185.962 48.1348 185.861 47.9326 185.558 47.6292C185.254 47.4269 184.849 47.3258 184.141 47.3258H182.219V49.7528H182.32ZM199.014 50.3595H194.765L194.158 52.382H190.313L194.866 40.3483H198.913L203.466 52.382H199.52L199.014 50.3595ZM198.306 47.7303L196.991 43.382L195.675 47.7303H198.306ZM204.781 40.2472H208.525V44.4944H212.572V40.2472H216.315V52.2809H212.572V47.4269H208.525V52.2809H204.781V40.2472ZM218.744 40.2472H222.487V44.4944H226.534V40.2472H230.278V52.2809H226.534V47.4269H222.487V52.2809H218.744V40.2472ZM239.687 52.382V47.5281H239.384C239.08 47.5281 238.776 47.6292 238.473 47.8314C238.271 47.9326 238.068 48.2359 237.765 48.7416L235.741 52.4831H231.492L233.313 48.9438C233.414 48.7416 233.616 48.5393 233.819 48.2359L234.426 47.6292C234.628 47.5281 234.932 47.3258 235.438 47.2247C234.932 47.1236 234.426 46.9213 234.122 46.7191C233.616 46.4157 233.212 46.0112 232.908 45.5056C232.605 45 232.504 44.3932 232.504 43.7865C232.504 42.9775 232.706 42.3708 233.111 41.8651C233.515 41.3595 234.021 40.955 234.628 40.7528C235.235 40.5505 236.146 40.4494 237.259 40.4494H243.431V52.4831H239.687V52.382ZM239.687 42.6741H238.068C237.36 42.6741 236.955 42.7753 236.652 42.9775C236.449 43.1798 236.247 43.4831 236.247 43.8876C236.247 44.191 236.348 44.3932 236.449 44.5955C236.652 44.7977 236.854 44.8989 237.056 45C237.562 45.1011 237.866 45.2022 238.068 45.2022H239.687V42.6741Z" fill="#6D6E71"/>
<path d="M37.3341 21.4382L0 3.03369V15.4719L37.3341 33.9775C37.3341 33.9775 59.1882 15.3708 99.2541 15.3708V3.03369C59.1882 3.03369 37.3341 21.4382 37.3341 21.4382Z" fill="#F24E5E"/>
<path d="M43.6071 68.0562C43.6071 68.0562 63.0329 52.4832 99.3553 52.4832V49.4495C63.0329 49.4495 43.6071 64.9214 43.6071 64.9214V68.0562Z" fill="#6D6E71"/>
<path d="M37.4353 77.5618L12.4447 64.9213V40.2472L37.3341 52.5843C37.3341 52.5843 59.2894 33.8764 99.2541 33.8764V21.5393C59.2894 21.5393 37.3341 40.1461 37.3341 40.1461L0.101181 21.5393V71.0899L37.5365 90C37.5365 90 59.2894 71.0899 99.3553 71.0899V58.7528C59.2894 58.7528 37.4353 77.5618 37.4353 77.5618Z" fill="#6D6E71"/>
<path d="M99.3553 40.146C63.0329 40.146 43.6071 55.6179 43.6071 55.6179V58.7527C43.6071 58.7527 63.1341 43.2808 99.3553 43.2808V40.146Z" fill="#6D6E71"/>
<path d="M109.473 2.93258H113.52L115.139 7.88764L116.758 2.93258H120.501L116.555 12.236C116.252 12.9438 115.948 13.5506 115.746 13.9551C115.544 14.3596 115.139 14.6629 114.633 14.8652C114.127 15.0674 113.52 15.2697 112.711 15.2697C112.306 15.2697 111.496 15.1685 110.485 15.0674V12.5393C111.092 12.6404 111.598 12.6404 111.901 12.6404C112.711 12.6404 113.318 12.3371 113.52 11.6292L109.473 2.93258ZM132.946 15.0674H128.798L127.381 11.9326C127.078 11.2247 126.774 10.7191 126.572 10.5169C126.369 10.3146 126.066 10.2135 125.762 10.2135V14.9663H122.019V2.93258H125.762V7.58427C126.066 7.58427 126.369 7.48315 126.471 7.2809C126.673 7.07865 126.976 6.47191 127.28 5.46067C127.584 4.75281 127.887 4.14607 128.089 3.8427C128.393 3.53933 128.798 3.23595 129.506 3.13483C130.113 3.03371 131.125 2.93258 132.541 2.93258V5.46067H132.339C131.732 5.46067 131.226 5.5618 130.922 5.86517C130.619 6.06742 130.315 6.47191 130.214 7.07865C130.012 7.58427 129.809 7.98876 129.607 8.29213C129.405 8.59551 129.101 8.79775 128.696 8.89888C129.202 9.10112 129.708 9.40449 130.113 9.80899C130.518 10.2135 130.922 10.9213 131.428 11.8315L132.946 15.0674ZM134.261 2.93258H140.433C141.748 2.93258 142.76 3.23596 143.468 3.94382C144.176 4.55056 144.48 5.46067 144.48 6.67416C144.48 7.88764 144.075 8.79775 143.367 9.50562C142.659 10.2135 141.546 10.5169 140.028 10.5169H138.005V14.9663H134.261V2.93258ZM138.005 8.08989H138.915C139.624 8.08989 140.129 7.98876 140.433 7.68539C140.736 7.48315 140.838 7.07865 140.838 6.77528C140.838 6.37079 140.736 6.06742 140.433 5.76404C140.231 5.46067 139.725 5.35955 139.016 5.35955H138.005V8.08989ZM153.788 13.0449H149.539L148.932 15.0674H145.087L149.741 2.93258H153.788L158.341 14.9663H154.395L153.788 13.0449ZM152.979 10.4157L151.664 6.06742L150.348 10.4157H152.979ZM158.746 0.101124H160.871V2.1236H158.746V0.101124ZM159.656 2.93258H163.4V14.9663H159.656V2.93258ZM162.186 0.101124H164.311V2.1236H162.186V0.101124ZM166.031 2.93258H169.774V7.17978H173.821V2.93258H177.565V14.9663H173.821V10.1124H169.774V14.9663H166.031V2.93258ZM188.087 10.1124L191.325 11.1236C191.122 12.0337 190.718 12.8427 190.313 13.4494C189.807 14.0562 189.301 14.5618 188.593 14.8652C187.885 15.1685 186.974 15.3708 185.962 15.3708C184.647 15.3708 183.534 15.1685 182.725 14.764C181.915 14.3596 181.207 13.7528 180.6 12.7416C179.993 11.7303 179.689 10.5169 179.689 9.10112C179.689 7.07865 180.195 5.5618 181.308 4.44944C182.32 3.33708 183.838 2.83146 185.76 2.83146C187.278 2.83146 188.492 3.13483 189.301 3.74157C190.212 4.34831 190.819 5.25843 191.224 6.57303L187.986 7.2809C187.885 6.8764 187.784 6.67416 187.581 6.47191C187.379 6.16854 187.075 5.96629 186.772 5.76404C186.468 5.5618 186.165 5.5618 185.76 5.5618C184.951 5.5618 184.242 5.86517 183.838 6.57303C183.534 7.07865 183.332 7.88764 183.332 9C183.332 10.3146 183.534 11.2247 183.939 11.7303C184.344 12.236 184.951 12.4382 185.659 12.4382C186.367 12.4382 186.873 12.236 187.278 11.8315C187.682 11.427 187.885 10.9213 188.087 10.1124ZM196.889 7.58427H198.913C200.734 7.58427 202.049 7.88764 202.96 8.59551C203.871 9.20225 204.275 10.2135 204.275 11.6292C204.275 12.7416 203.871 13.5506 203.061 14.1573C202.252 14.764 201.139 15.0674 199.621 15.0674H193.247V2.93258H196.991V7.58427H196.889ZM196.889 12.4382H198.812C200.026 12.4382 200.532 12.0337 200.532 11.1236C200.532 10.4157 199.925 10.0112 198.812 10.0112H196.889V12.4382ZM217.125 15.0674H212.976L211.56 11.9326C211.256 11.2247 210.953 10.7191 210.751 10.5169C210.548 10.3146 210.245 10.2135 209.941 10.2135V14.9663H206.198V2.93258H209.941V7.58427C210.245 7.58427 210.548 7.48315 210.649 7.2809C210.852 7.07865 211.155 6.47191 211.459 5.46067C211.762 4.75281 212.066 4.14607 212.268 3.8427C212.572 3.53933 212.976 3.23595 213.685 3.13483C214.292 3.03371 215.304 2.93258 216.72 2.93258V5.46067H216.518C215.911 5.46067 215.405 5.5618 215.101 5.86517C214.798 6.06742 214.494 6.47191 214.393 7.07865C214.191 7.58427 213.988 7.98876 213.786 8.29213C213.584 8.59551 213.28 8.79775 212.875 8.89888C213.381 9.10112 213.887 9.40449 214.292 9.80899C214.696 10.2135 215.101 10.9213 215.607 11.8315L217.125 15.0674ZM229.974 2.93258V14.9663H226.433V8.39326L221.88 15.0674H218.339V2.93258H221.88V9.60674L226.433 2.93258H229.974ZM244.038 2.93258V14.9663H240.496V8.39326L235.944 15.0674H232.402V2.93258H235.944V9.60674L240.496 2.93258H244.038ZM241.306 0C241.205 0.707865 240.901 1.21348 240.294 1.7191C239.788 2.1236 239.08 2.32584 238.372 2.32584C237.664 2.32584 236.955 2.1236 236.449 1.7191C235.944 1.31461 235.539 0.707865 235.438 0H236.854C237.056 0.707865 237.562 1.01124 238.372 1.01124C239.181 1.01124 239.687 0.707865 239.991 0L241.306 0Z" fill="#F24E5E"/>
<path d="M117.668 70.9887V66.1348H117.365C117.061 66.1348 116.758 66.2359 116.454 66.4381C116.252 66.5392 116.049 66.8426 115.746 67.3482L113.722 71.0898H109.473L111.294 67.5505C111.395 67.3482 111.598 67.146 111.8 66.8426L112.407 66.2359C112.609 66.1348 112.913 65.9325 113.419 65.8314C112.913 65.7303 112.407 65.528 112.104 65.3258C111.598 65.0224 111.193 64.6179 110.889 64.1123C110.586 63.6067 110.485 62.9999 110.485 62.3932C110.485 61.5842 110.687 60.9775 111.092 60.4718C111.496 59.9662 112.002 59.5617 112.609 59.3595C113.216 59.1572 114.127 59.0561 115.24 59.0561H121.412V71.0898H117.668V70.9887ZM117.668 61.2808H116.049C115.341 61.2808 114.936 61.3819 114.633 61.5842C114.431 61.7864 114.228 62.0898 114.228 62.4943C114.228 62.7977 114.329 62.9999 114.431 63.2022C114.633 63.4044 114.835 63.5055 115.038 63.6067C115.544 63.7078 115.847 63.8089 116.049 63.8089H117.668V61.2808ZM134.767 70.9887H130.619L129.202 67.8539C128.899 67.146 128.595 66.6404 128.393 66.4381C128.191 66.2359 127.887 66.1348 127.584 66.1348V70.8876H123.84V58.8539H127.584V63.5055C127.887 63.5055 128.191 63.4044 128.292 63.2022C128.494 62.9999 128.798 62.3932 129.101 61.3819C129.405 60.6741 129.708 60.0673 129.911 59.764C130.214 59.4606 130.619 59.1572 131.327 59.0561C131.934 58.955 132.946 58.8539 134.362 58.8539V61.3819H134.16C133.553 61.3819 133.047 61.4831 132.744 61.7864C132.44 61.9887 132.136 62.3932 132.035 62.9999C131.833 63.5055 131.631 63.91 131.428 64.2134C131.226 64.5168 130.922 64.719 130.518 64.8201C131.024 65.0224 131.529 65.3258 131.934 65.7303C132.339 66.1348 132.744 66.8426 133.249 67.7527L134.767 70.9887ZM135.678 64.9213C135.678 62.8988 136.184 61.3819 137.296 60.2696C138.409 59.1572 139.927 58.6516 141.849 58.6516C143.873 58.6516 145.391 59.1572 146.504 60.2696C147.616 61.3819 148.122 62.8988 148.122 64.8201C148.122 66.2359 147.92 67.3482 147.414 68.2584C146.908 69.1685 146.301 69.8763 145.391 70.3819C144.48 70.8876 143.367 71.0898 142.052 71.0898C140.736 71.0898 139.522 70.8876 138.713 70.4831C137.802 70.0786 137.094 69.3707 136.588 68.4606C135.981 67.5505 135.678 66.337 135.678 64.9213ZM139.421 64.9213C139.421 66.1348 139.624 67.0449 140.129 67.5505C140.534 68.0561 141.242 68.3595 141.951 68.3595C142.76 68.3595 143.367 68.0561 143.772 67.5505C144.176 67.0449 144.48 66.1348 144.48 64.719C144.48 63.6067 144.278 62.7977 143.772 62.1909C143.266 61.6853 142.659 61.3819 141.951 61.3819C141.242 61.3819 140.635 61.6853 140.129 62.1909C139.624 62.7977 139.421 63.7078 139.421 64.9213ZM158.139 66.0336L161.376 67.0449C161.174 67.955 160.769 68.764 160.365 69.3707C159.859 69.9775 159.353 70.4831 158.645 70.7864C157.936 71.0898 157.026 71.2921 156.014 71.2921C154.699 71.2921 153.586 71.0898 152.776 70.6853C151.967 70.2808 151.259 69.6741 150.652 68.6628C150.045 67.7527 149.741 66.4381 149.741 65.0224C149.741 62.9999 150.247 61.4831 151.36 60.3707C152.372 59.2584 153.889 58.7527 155.812 58.7527C157.329 58.7527 158.544 59.0561 159.353 59.6628C160.264 60.2696 160.871 61.1797 161.275 62.4943L158.038 63.2022C157.936 62.7977 157.835 62.5954 157.633 62.3932C157.431 62.0898 157.127 61.8876 156.824 61.6853C156.52 61.4831 156.216 61.4831 155.812 61.4831C155.002 61.4831 154.294 61.7864 153.889 62.4943C153.586 62.9999 153.384 63.8089 153.384 64.9213C153.384 66.2359 153.586 67.146 153.991 67.6516C154.395 68.1572 155.002 68.3595 155.711 68.3595C156.419 68.3595 156.925 68.1572 157.329 67.7527C157.734 67.3482 158.038 66.7415 158.139 66.0336ZM162.388 58.8539H173.72V61.8876H169.875V70.9887H166.132V61.8876H162.287V58.8539H162.388ZM175.541 58.8539H179.285V70.8876H175.541V58.8539ZM187.075 64.9213C187.075 62.8988 187.581 61.3819 188.694 60.2696C189.807 59.1572 191.325 58.6516 193.247 58.6516C195.271 58.6516 196.788 59.1572 197.901 60.2696C199.014 61.3819 199.52 62.8988 199.52 64.8201C199.52 66.2359 199.318 67.3482 198.812 68.2584C198.306 69.1685 197.699 69.8763 196.788 70.3819C195.878 70.8876 194.765 71.0898 193.449 71.0898C192.134 71.0898 190.92 70.8876 190.111 70.4831C189.2 70.0786 188.492 69.3707 187.986 68.4606C187.379 67.5505 187.075 66.337 187.075 64.9213ZM190.819 64.9213C190.819 66.1348 191.021 67.0449 191.527 67.5505C191.932 68.0561 192.64 68.3595 193.348 68.3595C194.158 68.3595 194.765 68.0561 195.169 67.5505C195.574 67.0449 195.878 66.1348 195.878 64.719C195.878 63.6067 195.675 62.7977 195.169 62.1909C194.664 61.6853 194.056 61.3819 193.348 61.3819C192.64 61.3819 192.033 61.6853 191.527 62.1909C191.021 62.7977 190.819 63.7078 190.819 64.9213ZM209.638 66.0336L212.875 67.0449C212.673 67.955 212.268 68.764 211.864 69.3707C211.358 69.9775 210.852 70.4831 210.144 70.7864C209.435 71.0898 208.525 71.2921 207.513 71.2921C206.198 71.2921 205.085 71.0898 204.275 70.6853C203.466 70.2808 202.758 69.6741 202.151 68.6628C201.544 67.7527 201.24 66.4381 201.24 65.0224C201.24 62.9999 201.746 61.4831 202.859 60.3707C203.871 59.2584 205.388 58.7527 207.311 58.7527C208.828 58.7527 210.042 59.0561 210.852 59.6628C211.762 60.2696 212.369 61.1797 212.774 62.4943L209.536 63.2022C209.435 62.7977 209.334 62.5954 209.132 62.3932C208.929 62.0898 208.626 61.8876 208.322 61.6853C208.019 61.4831 207.715 61.4831 207.311 61.4831C206.501 61.4831 205.793 61.7864 205.388 62.4943C205.085 62.9999 204.882 63.8089 204.882 64.9213C204.882 66.2359 205.085 67.146 205.489 67.6516C205.894 68.1572 206.501 68.3595 207.209 68.3595C207.918 68.3595 208.424 68.1572 208.828 67.7527C209.132 67.3482 209.435 66.7415 209.638 66.0336ZM214.696 58.8539H221.678C222.791 58.8539 223.701 59.1572 224.308 59.764C224.915 60.3707 225.219 61.0786 225.219 61.8876C225.219 62.5954 225.016 63.2022 224.511 63.7078C224.207 64.0112 223.802 64.3145 223.195 64.5168C224.106 64.719 224.713 65.1235 225.118 65.6291C225.522 66.1348 225.725 66.7415 225.725 67.5505C225.725 68.1572 225.624 68.764 225.32 69.2696C225.016 69.7752 224.612 70.1797 224.106 70.4831C223.802 70.6853 223.296 70.7864 222.689 70.8876C221.88 70.9887 221.273 71.0898 221.071 71.0898H214.595V58.8539H214.696ZM218.44 63.6067H220.059C220.666 63.6067 221.071 63.5055 221.273 63.3033C221.475 63.101 221.576 62.7977 221.576 62.3932C221.576 62.0898 221.475 61.7864 221.273 61.5842C221.071 61.3819 220.666 61.2808 220.059 61.2808H218.44V63.6067ZM218.44 68.3595H220.362C220.969 68.3595 221.475 68.2584 221.678 68.0561C221.981 67.8539 222.082 67.5505 222.082 67.146C222.082 66.7415 221.981 66.5393 221.678 66.2359C221.374 66.0336 220.969 65.9325 220.261 65.9325H218.339V68.3595H218.44ZM227.951 58.8539H231.694V70.8876H227.951V58.8539ZM233.515 58.8539H244.847V61.8876H241.002V70.9887H237.259V61.8876H233.414V58.8539H233.515ZM258 58.8539V70.8876H254.459V64.2134L249.906 70.8876H246.365V58.8539H249.906V65.528L254.459 58.8539H258Z" fill="#6D6E71"/>
</g>
<defs>
<clipPath id="clip0_41_538">
<rect width="258" height="90" fill="white"/>
</clipPath>
</defs>
</svg>
