<svg xmlns="http://www.w3.org/2000/svg" width="221" height="35" viewBox="0 0 221 35" fill="#d7d8e4" class="injected-svg" data-src="https://images.ctfassets.net/kwjkl9590afm/1AXPsidZTm22JbXxQZuMzK/a8455e336d9b3fe3f7cdd407f6adb565/inverita.svg" xmlns:xlink="http://www.w3.org/1999/xlink">
    <g fill-rule="evenodd">
        <path fill-rule="nonzero" d="M6.697 33.23c0 .394-.099.709-.297.947a1.868 1.868 0 0             1-.76.54c-.309.123-.665.201-1.068.234-.404.033-.804.049-1.2.049-.459 0-.89-.02-1.294-.061a3.972             3.972 0 0 1-1.069-.246 1.691 1.691 0 0 1-.736-.541C.091 33.914 0 33.607 0             33.23V2.163c0-.36.087-.68.261-.959A1.96 1.96 0 0 1 .986.528a3.942 3.942 0 0 1             1.08-.393C2.478.045 2.913 0 3.372 0c.46 0 .89.029 1.295.086.403.057.755.168             1.056.332.301.164.539.385.713.663.174.279.261.64.261 1.082V33.23zm37.503 0c0             .394-.065.709-.195.947-.13.237-.312.417-.548.54-.235.123-.523.201-.864.234a12.954 12.954 0 0             1-2.228 0 6.368 6.368 0 0 1-1.084-.184 5.425 5.425 0 0 1-.95-.345 1.959 1.959 0 0             1-.682-.503c-.016-.017-.024-.033-.024-.05l-.025-.024-16-21.064v20.253c0 .393-.133.717-.401.97a2.856 2.856 0             0 1-1.023.603c-.414.147-.86.25-1.34.307a11.219 11.219 0 0 1-2.544.025 2.51 2.51 0 0 1-.865-.246             1.16 1.16 0 0 1-.523-.541c-.114-.238-.17-.545-.17-.922V2.163c0-.737.223-1.282.669-1.635C15.849.176             16.552 0 17.51 0c.665 0 1.327.082 1.984.246.658.164 1.181.442 1.571.835l.097.05 16.17             21.31V3.342c0-.46.114-.89.341-1.29.228-.402.532-.754.914-1.058A4.655 4.655 0 0 1 41.473             0c.941 0 1.631.14 2.07.418.438.278.657.86.657 1.745V33.23zM72.91             3.49c.282-.836.58-1.487.895-1.954.315-.467.667-.815 1.056-1.044.389-.23.82-.37 1.291-.418C76.624.024             77.166 0 77.78 0c.464 0 .894.082 1.292.246.397.164.708.43.931.799.224.368.344.852.36 1.45.017.598-.132             1.34-.447 2.224l-9.14 25.808c-.398 1.147-.853 2.023-1.366 2.63-.514.606-1.056 1.044-1.627             1.315a4.88 4.88 0 0 1-1.776.467c-.613.04-1.226.061-1.838.061h-1.093c-.613 0-1.226-.02-1.838-.061a4.88             4.88 0 0 1-1.776-.467c-.572-.27-1.114-.71-1.627-1.315-.514-.607-.969-1.483-1.366-2.63l-9.14-25.808c-.315-.885-.465-1.626-.448-2.224.017-.598.137-1.082.36-1.45.224-.37.534-.635.932-.8A3.355             3.355 0 0 1 49.463 0c.613 0 1.155.025 1.627.074.472.049.903.188 1.292.418.389.229.74.577 1.055 1.044.315.467.613             1.118.895 1.954l8.445 24.726c.082.246.161.439.236.578.074.14.178.209.31.209h.596c.133 0             .236-.07.31-.21.075-.138.154-.33.237-.577L72.91 3.49zM106.993 35H87.918c-.482 0-.934-.02-1.357-.063a4.273             4.273 0 0 1-1.12-.25 1.77 1.77 0 0 1-.773-.55c-.19-.241-.286-.554-.286-.937V2.95c0-.167.008-.292.025-.375.05-.25.137-.525.261-.825.125-.3.324-.58.598-.838a3.397             3.397 0 0 1 1.046-.65C86.735.088 87.27 0 87.918 0h16.185c.913 0 1.631.004             2.154.013.523.008.9.016 1.133.025.232.008.398.012.498.012.299.017.569.112.81.288.24.175.443.4.61.674.165.276.294.588.385.938.092.35.137.7.137             1.05 0 .833-.137 1.467-.41 1.9-.274.433-.623.737-1.046.912a3.913 3.913 0 0 1-1.445.276c-.54.008-1.066.012-1.58.012H91.403v7.85h10.47c.557             0 .992.004 1.308.013.315.008.543.016.685.025.14.008.253.012.336.012.299.017.577.104.834.262.257.159.485.371.685.638.199.267.352.575.46.925a3.8             3.8 0 0 1 .162 1.125c0 .533-.062.996-.187 1.387a2.98 2.98 0 0 1-.485.963c-.2.25-.432.437-.697.563a1.91             1.91 0 0 1-.822.187h-12.75v8.85h13.945c.515 0 1.042.004 1.581.013.54.008 1.021.1 1.445.274.423.176.772.48             1.045.913.274.433.411 1.067.411 1.9 0 .35-.045.7-.137 1.05-.091.35-.22.662-.386.938-.166.275-.369.5-.61.675-.24.175-.51.27-.809.287a7.57             7.57 0 0 1-.896.05zm21.235-28.923h-5.995l-7.044.061v-.394-2.887c0-.132.008-.223.025-.272.05-.248.137-.52.262-.817.125-.297.325-.574.6-.83.274-.256.624-.47             1.049-.644.424-.173.962-.26 1.611-.26h9.293a26.93 26.93 0 0 1 2.935.013c1.09.057 2.202.21 3.334.458 1.133.247 2.24.619 3.323             1.114a9.94 9.94 0 0 1 2.885 1.994c.84.833 1.52 1.86 2.036 3.083.516 1.221.774 2.682.774 4.383v.099c0 1.453-.191 2.72-.574             3.8-.383 1.082-.895 2.02-1.537 2.812a8.921 8.921 0 0 1-2.235 1.98c-.85.529-1.74.958-2.673             1.288l6.644 11.218c.2.363.275.681.225.953-.05.273-.191.512-.424.719a2.792 2.792 0 0 1-.875.507c-.35.132-.716.24-1.099.322a10.59             10.59 0 0 1-2.048.223c-.6 0-1.2-.107-1.799-.322-.6-.215-1.049-.586-1.349-1.114l-6.52-11.342h-3.571c-.683             0-1.179-.293-1.487-.879-.308-.586-.462-1.3-.462-2.142 0-.413.025-.805.075-1.176.05-.372.15-.694.3-.966s.354-.487.612-.644c.258-.157.595-.235             1.012-.235h2.947c1.599-.017 2.902-.132 3.91-.347 1.007-.214 1.794-.528 2.36-.94.566-.413.958-.913             1.174-1.499.217-.586.333-1.259.35-2.018v-.248c0-.809-.1-1.527-.3-2.154-.2-.628-.591-1.156-1.174-1.585-.583-.43-1.399-.755-2.448-.978-1.05-.223-2.423-.334-4.122-.334zM154.03             33.23c0 .394-.099.709-.297.947a1.868 1.868 0 0 1-.76.54c-.308.123-.664.201-1.068.234s-.804.049-1.2.049c-.459 0-.89-.02-1.294-.061a3.972             3.972 0 0 1-1.068-.246 1.691 1.691 0 0 1-.737-.541c-.182-.238-.273-.545-.273-.922V2.163c0-.36.087-.68.262-.959a1.96 1.96             0 0 1 .724-.676 3.942 3.942 0 0 1 1.08-.393c.412-.09.847-.135 1.307-.135.459 0             .89.029 1.294.086.404.057.756.168 1.057.332.3.164.538.385.712.663.174.279.261.64.261             1.082V33.23zM185.347 0c.526 0 .936.05 1.232.149.296.099.513.264.653.495.14.232.222.542.246.93.025.388.037.872.037             1.45 0 .744-.107 1.318-.32 1.723-.214.405-.468.698-.764.88-.296.182-.591.289-.887.322-.296.033-.525.05-.69.05h-8.82v27.216c0             .397-.103.715-.308.955-.205.24-.468.421-.788.545-.32.124-.69.202-1.11.235-.418.033-.833.05-1.243.05-.477             0-.924-.02-1.343-.062a4.22 4.22 0 0 1-1.109-.248 1.752 1.752 0 0 1-.764-.545c-.188-.24-.283-.55-.283-.93V6h-8.524c-.165             0-.386-.03-.666-.087a2.053 2.053 0 0 1-.825-.397c-.271-.206-.51-.504-.715-.892-.205-.388-.308-.921-.308-1.599             0-.644.021-1.165.062-1.562.041-.396.136-.702.283-.917.148-.215.354-.36.616-.433.263-.075.616-.112             1.06-.112h25.278zm26.893 27.921h-15.99l-1.226 3.589c-.284.836-.584 1.487-.901 1.954-.317.467-.672.815-1.064             1.044-.392.23-.826.37-1.301.418-.475.05-1.022.074-1.64.074-.466 0-.9-.078-1.3-.233a1.864 1.864 0 0             1-.939-.787c-.225-.369-.346-.856-.363-1.462-.016-.607.134-1.352.45-2.237l9.21-25.808c.4-1.147.859-2.023             1.376-2.63.517-.606 1.064-1.044 1.64-1.315a4.946 4.946 0 0 1 1.788-.467A27.957 27.957 0 0 1 203.832 0h.851c.617             0 1.235.02 1.852.061a4.946 4.946 0 0 1 1.789.467c.576.27 1.122.71 1.64 1.315.516.607.975 1.483 1.375 2.63l9.21             25.808c.316.885.466 1.63.45 2.237-.017.606-.138 1.093-.363 1.462-.225.369-.538.63-.939.787a3.56 3.56 0 0             1-1.3.233c-.618 0-1.169-.025-1.652-.074a3.21             3.21 0 0 1-1.314-.418c-.392-.229-.747-.577-1.064-1.044-.317-.467-.609-1.118-.876-1.954l-1.25-3.589zm-14.01-6.383h12.055l-5.311-15.38a3.84             3.84 0 0 0-.235-.568c-.074-.137-.177-.205-.309-.205h-.345c-.132 0-.235.068-.31.205a3.84 3.84 0 0 0-.234.568l-5.31 15.38z"></path>
        <circle cx="118" cy="19" r="3" fill="#38CDF1"></circle>
    </g>
</svg>