<svg width="219" height="40" viewBox="0 0 219 40" fill="none" xmlns="http://www.w3.org/2000/svg">
<g clip-path="url(#clip0_55_1316)">
<path d="M72.14 0C68.2496 0 64.4466 1.15363 61.2119 3.31499C57.9772 5.47636 55.456 8.5484 53.9673 12.1426C52.4785 15.7368 52.089 19.6918 52.8479 23.5074C53.6069 27.323 55.4803 30.8279 58.2312 33.5788C60.9821 36.3297 64.4869 38.2031 68.3026 38.962C72.1182 39.721 76.0731 39.3315 79.6674 37.8427C83.2616 36.3539 86.3336 33.8328 88.495 30.5981C90.6564 27.3634 91.81 23.5604 91.81 19.67C91.81 17.0869 91.3012 14.5291 90.3127 12.1426C89.3242 9.75614 87.8753 7.58774 86.0488 5.76121C84.2222 3.93468 82.0538 2.4858 79.6674 1.49729C77.2809 0.50878 74.7231 0 72.14 0ZM72.14 31.19C69.8615 31.19 67.6343 30.5144 65.7398 29.2485C63.8454 27.9827 62.3688 26.1835 61.4969 24.0785C60.625 21.9735 60.3968 19.6572 60.8413 17.4226C61.2858 15.1879 62.383 13.1352 63.9941 11.5241C65.6052 9.91303 67.6579 8.81586 69.8925 8.37135C72.1272 7.92685 74.4435 8.15499 76.5485 9.02691C78.6535 9.89883 80.4527 11.3754 81.7185 13.2698C82.9843 15.1643 83.66 17.3916 83.66 19.67C83.66 22.7253 82.4463 25.6555 80.2859 27.8159C78.1254 29.9763 75.1953 31.19 72.14 31.19Z" fill="#FFBD00"/>
<path d="M115.4 23.8601H99.78V37.4701H115.4V23.8601Z" fill="#FFBD00"/>
<path d="M115.4 1.87988H99.78V15.4899H115.4V1.87988Z" fill="#FFBD00"/>
<path d="M210.42 23.0001C210.207 23.0702 209.984 23.104 209.76 23.1001C209.364 23.0765 208.978 22.9634 208.632 22.7695C208.285 22.5755 207.987 22.3056 207.76 21.9801L205.59 19.3201L208.39 15.8701H210.29L207.53 19.2601L209 21.0001C209.094 21.1386 209.218 21.2533 209.364 21.3349C209.51 21.4165 209.673 21.4628 209.84 21.4701C210.047 21.4686 210.251 21.4244 210.44 21.3401L210.42 23.0001Z" fill="white"/>
<path d="M205.43 15.8401H203.79V22.9501H205.43V15.8401Z" fill="white"/>
<path d="M196.74 21.4101C196.976 21.5298 197.235 21.598 197.5 21.6101C197.637 21.6172 197.773 21.5919 197.898 21.5363C198.023 21.4807 198.134 21.3963 198.22 21.2901L195.52 15.8401H197.29L199.11 19.5001H199.17L200.66 15.8401H202.42L199.8 21.4501C199.655 21.9256 199.365 22.344 198.97 22.647C198.576 22.9499 198.097 23.1223 197.6 23.1401C197.316 23.1484 197.032 23.1112 196.76 23.0301L196.74 21.4101Z" fill="white"/>
<path d="M192.43 15.8601H190.67L187.81 23.0001H189.45L190.07 21.4701H193L193.62 23.0001H195.32L192.43 15.8601ZM190.6 20.1401L191.53 17.8501L192.46 20.1401H190.6Z" fill="white"/>
<path d="M169.64 15.8601H168.13L164.75 20.5501H164.69V15.8601H163.04V22.9501H164.57L167.93 18.2501H167.98V22.9501H169.64V15.8601Z" fill="white"/>
<path d="M207.17 1.61997C206.444 1.62786 205.736 1.85038 205.137 2.25951C204.537 2.66864 204.071 3.2461 203.799 3.91919C203.526 4.59228 203.459 5.33091 203.606 6.04211C203.752 6.7533 204.106 7.40527 204.622 7.91593C205.138 8.4266 205.794 8.77313 206.507 8.91191C207.219 9.05069 207.957 8.97552 208.627 8.69585C209.297 8.41619 209.87 7.94453 210.272 7.34025C210.675 6.73597 210.89 6.02609 210.89 5.29997C210.891 4.81294 210.796 4.33051 210.609 3.8808C210.422 3.43108 210.147 3.02307 209.801 2.68056C209.455 2.33804 209.044 2.06787 208.592 1.88578C208.14 1.70369 207.657 1.61333 207.17 1.61997ZM207.17 7.45997C206.893 7.46086 206.619 7.40433 206.366 7.29397C206.112 7.18361 205.884 7.0218 205.696 6.8188C205.508 6.61579 205.364 6.37599 205.274 6.11456C205.183 5.85313 205.148 5.57575 205.17 5.29997C205.15 5.01805 205.189 4.73509 205.283 4.4687C205.378 4.20232 205.526 3.95819 205.719 3.75152C205.911 3.54484 206.144 3.38004 206.404 3.26736C206.663 3.15468 206.942 3.09653 207.225 3.09653C207.508 3.09653 207.787 3.15468 208.046 3.26736C208.306 3.38004 208.539 3.54484 208.732 3.75152C208.924 3.95819 209.072 4.20232 209.167 4.4687C209.261 4.73509 209.3 5.01805 209.28 5.29997C209.303 5.58527 209.265 5.87226 209.168 6.14155C209.071 6.41085 208.917 6.65617 208.717 6.86093C208.517 7.0657 208.276 7.22515 208.009 7.32849C207.742 7.43183 207.456 7.47667 207.17 7.45997Z" fill="white"/>
<path d="M200.81 5.00003C201.041 4.86272 201.234 4.6702 201.372 4.43978C201.51 4.20937 201.588 3.94829 201.6 3.68003C201.6 2.51003 200.6 1.78003 199.06 1.78003H196.56V8.85003H199.45C201 8.85003 202 8.00003 202 6.66003C201.985 6.29741 201.865 5.94703 201.653 5.65208C201.442 5.35712 201.149 5.13046 200.81 5.00003ZM198.21 3.14003H198.94C199.51 3.14003 199.94 3.38003 199.94 3.88003C199.94 4.38003 199.61 4.64003 199.08 4.64003H198.22L198.21 3.14003ZM199.32 7.52003H198.21V5.83003H199.34C199.457 5.81744 199.575 5.82949 199.687 5.8654C199.799 5.9013 199.902 5.96027 199.989 6.03849C200.077 6.1167 200.147 6.21243 200.196 6.31949C200.244 6.42655 200.269 6.54256 200.27 6.66003C200.268 6.7789 200.241 6.89604 200.191 7.00387C200.141 7.1117 200.069 7.20783 199.979 7.28605C199.89 7.36427 199.785 7.42284 199.671 7.45798C199.558 7.49311 199.438 7.50403 199.32 7.49003V7.52003Z" fill="white"/>
<path d="M168.79 1.75H173.16V3.21H170.45V4.47H172.99V5.93H170.45V7.39H173.23V8.85H168.79V1.75Z" fill="white"/>
<path d="M161.21 1.75H167.09V3.23H164.97V8.85H163.31V3.23H161.21V1.75Z" fill="white"/>
<path d="M146.66 5.87H143.56V8.85H141.91V1.75H143.56V4.41H146.66V1.75H148.31V8.85H146.66V5.87Z" fill="white"/>
<path d="M139.53 1.75H137.87V8.84H139.53V1.75Z" fill="white"/>
<path d="M133.89 8.85V4.6H133.83L132.13 7.75H131.06L129.34 4.6H129.28V8.85H127.65V1.75H129.3L131.6 5.84L133.89 1.75H135.5V8.85H133.89Z" fill="white"/>
<path d="M152.35 1.75H150.69V8.84H152.35V1.75Z" fill="white"/>
<path d="M178.12 1.74989H175.42V8.84989H177.08V6.46989H178.08C178.403 6.48463 178.727 6.43512 179.031 6.32422C179.335 6.21332 179.614 6.04323 179.852 5.82378C180.09 5.60433 180.282 5.33987 180.418 5.04569C180.553 4.75151 180.628 4.43345 180.64 4.10989C180.63 3.78941 180.556 3.47411 180.424 3.18202C180.292 2.88992 180.103 2.62676 179.869 2.40758C179.635 2.1884 179.36 2.0175 179.06 1.90465C178.76 1.7918 178.44 1.73921 178.12 1.74989ZM178 4.99989H177.1V3.17989H178C178.129 3.16707 178.258 3.18176 178.381 3.22299C178.503 3.26422 178.615 3.33105 178.71 3.41903C178.805 3.507 178.879 3.61411 178.929 3.73323C178.979 3.85235 179.003 3.98075 179 4.10989C178.995 4.23474 178.965 4.3573 178.911 4.47025C178.858 4.5832 178.782 4.68422 178.689 4.76729C178.596 4.85036 178.487 4.91377 178.368 4.95373C178.25 4.9937 178.125 5.00939 178 4.99989Z" fill="white"/>
<path d="M188.97 1.75H194.85V3.23H192.73V8.85H191.07V3.23H188.97V1.75Z" fill="white"/>
<path d="M131.49 15.7301C130.763 15.738 130.056 15.9608 129.455 16.3703C128.855 16.7799 128.39 17.358 128.118 18.0316C127.846 18.7053 127.779 19.4444 127.926 20.1559C128.074 20.8674 128.428 21.5193 128.946 22.0296C129.463 22.5398 130.119 22.8856 130.833 23.0232C131.546 23.1609 132.284 23.0843 132.954 22.8031C133.624 22.5219 134.196 22.0487 134.597 21.4431C134.999 20.8375 135.212 20.1266 135.21 19.4001C135.21 18.9139 135.113 18.4325 134.926 17.984C134.738 17.5354 134.464 17.1286 134.117 16.7872C133.771 16.4457 133.361 16.1764 132.91 15.995C132.459 15.8135 131.976 15.7235 131.49 15.7301ZM131.49 21.5701C131.213 21.571 130.939 21.5144 130.686 21.4041C130.432 21.2937 130.204 21.1319 130.016 20.9289C129.828 20.7259 129.684 20.4861 129.594 20.2247C129.503 19.9632 129.468 19.6859 129.49 19.4101C129.47 19.1282 129.509 18.8452 129.603 18.5788C129.698 18.3124 129.846 18.0683 130.038 17.8616C130.231 17.655 130.464 17.4901 130.724 17.3775C130.983 17.2648 131.262 17.2066 131.545 17.2066C131.828 17.2066 132.107 17.2648 132.366 17.3775C132.626 17.4901 132.859 17.655 133.051 17.8616C133.244 18.0683 133.392 18.3124 133.487 18.5788C133.581 18.8452 133.62 19.1282 133.6 19.4101C133.623 19.6954 133.585 19.9824 133.488 20.2517C133.391 20.521 133.237 20.7663 133.037 20.971C132.837 21.1758 132.596 21.3353 132.329 21.4386C132.062 21.5419 131.776 21.5868 131.49 21.5701Z" fill="white"/>
<path d="M148.89 19.0801C149.121 18.9435 149.315 18.7511 149.453 18.5206C149.591 18.29 149.669 18.0286 149.68 17.7601C149.68 16.5901 148.68 15.8601 147.13 15.8601H144.63V23.0001H147.52C149.11 23.0001 150.07 22.1101 150.07 20.8101C150.07 20.4366 149.957 20.0718 149.747 19.7633C149.536 19.4547 149.238 19.2167 148.89 19.0801ZM146.29 17.2201H147C147.57 17.2201 148 17.4601 148 17.9601C148 18.4601 147.67 18.7201 147.14 18.7201H146.28L146.29 17.2201ZM147.41 21.6001H146.29V19.9401H147.42C147.537 19.9275 147.655 19.9396 147.767 19.9755C147.879 20.0114 147.982 20.0703 148.069 20.1486C148.157 20.2268 148.227 20.3225 148.276 20.4296C148.324 20.5366 148.349 20.6526 148.35 20.7701C148.347 20.8881 148.319 21.0042 148.268 21.1108C148.217 21.2174 148.145 21.3124 148.056 21.3895C147.966 21.4666 147.862 21.5243 147.749 21.5589C147.636 21.5934 147.517 21.604 147.4 21.5901L147.41 21.6001Z" fill="white"/>
<path d="M184.8 19.9801H181.71V22.9501H180.05V15.8601H181.71V18.5201H184.8V15.8601H186.46V22.9501H184.8V19.9801Z" fill="white"/>
<path d="M153.7 15.8601H152.04V22.9501H153.7V15.8601Z" fill="white"/>
<path d="M155.46 15.8601H161.34V17.3301H159.22V22.9501H157.56V17.3301H155.46V15.8601Z" fill="white"/>
<path d="M142.47 21.1101C141.878 21.4226 141.219 21.584 140.55 21.5801C140.263 21.5998 139.974 21.5572 139.705 21.4552C139.436 21.3532 139.191 21.1942 138.989 20.9891C138.787 20.784 138.631 20.5376 138.533 20.2668C138.435 19.996 138.396 19.7072 138.42 19.4201C138.397 19.1366 138.435 18.8514 138.53 18.5836C138.626 18.3157 138.778 18.0715 138.976 17.867C139.174 17.6626 139.413 17.5027 139.678 17.3981C139.942 17.2934 140.226 17.2464 140.51 17.2601C141.171 17.2566 141.821 17.4218 142.4 17.7401V16.0701C141.802 15.8573 141.174 15.7425 140.54 15.7301C140.047 15.7181 139.557 15.8046 139.099 15.9846C138.64 16.1645 138.222 16.4343 137.869 16.778C137.516 17.1217 137.235 17.5324 137.043 17.9862C136.851 18.4399 136.751 18.9274 136.75 19.4201C136.742 19.9187 136.837 20.4136 137.029 20.8739C137.221 21.3343 137.505 21.7504 137.864 22.0964C138.223 22.4424 138.65 22.7109 139.117 22.8853C139.584 23.0597 140.082 23.1362 140.58 23.1101C141.225 23.1106 141.865 22.9954 142.47 22.7701V21.1101Z" fill="white"/>
<path d="M175.68 15.8601H174.02V22.9501H175.68V15.8601Z" fill="white"/>
<path d="M218.75 15.8601H217.23L213.85 20.5501H213.8V15.8601H212.14V22.9501H213.67L217.03 18.2501H217.09V22.9501H218.75V15.8601Z" fill="white"/>
<path d="M160 6.99999C159.408 7.31167 158.749 7.47307 158.08 7.46999C157.793 7.48969 157.504 7.44708 157.235 7.34508C156.966 7.24307 156.721 7.08407 156.519 6.87896C156.317 6.67386 156.161 6.42748 156.063 6.15668C155.965 5.88589 155.926 5.59707 155.95 5.30999C155.927 5.02995 155.964 4.74829 156.058 4.48336C156.151 4.21843 156.299 3.97619 156.493 3.7724C156.686 3.56862 156.92 3.40787 157.18 3.30063C157.44 3.19338 157.719 3.14206 158 3.14999C158.662 3.14866 159.312 3.31739 159.89 3.63999V1.99999C159.285 1.76914 158.647 1.64071 158 1.61999C157.507 1.60801 157.017 1.69452 156.559 1.87446C156.1 2.0544 155.682 2.32415 155.329 2.66786C154.976 3.01158 154.695 3.42234 154.503 3.87605C154.311 4.32976 154.211 4.81728 154.21 5.30999C154.204 5.80998 154.3 6.30591 154.494 6.76703C154.687 7.22815 154.973 7.64462 155.334 7.9906C155.695 8.33659 156.123 8.60472 156.592 8.77836C157.061 8.95199 157.561 9.02743 158.06 8.99999C158.722 9.00632 159.38 8.89107 160 8.65999V6.99999Z" fill="white"/>
<path d="M187.71 7.00005C187.118 7.31212 186.459 7.47354 185.79 7.47005C185.503 7.48975 185.214 7.44714 184.945 7.34514C184.676 7.24313 184.431 7.08413 184.229 6.87902C184.027 6.67392 183.871 6.42754 183.773 6.15674C183.675 5.88595 183.636 5.59713 183.66 5.31005C183.637 5.02652 183.675 4.74133 183.77 4.47351C183.866 4.2057 184.018 3.96142 184.216 3.75699C184.414 3.55255 184.653 3.39267 184.918 3.28801C185.182 3.18334 185.466 3.13631 185.75 3.15005C186.412 3.14872 187.062 3.31745 187.64 3.64005V2.00005C187.043 1.78644 186.414 1.6716 185.78 1.66005C185.292 1.64945 184.806 1.73566 184.351 1.91373C183.896 2.09179 183.481 2.35818 183.13 2.69752C182.778 3.03685 182.497 3.44242 182.304 3.89082C182.11 4.33922 182.007 4.82158 182 5.31005C181.994 5.80738 182.09 6.30068 182.281 6.75969C182.473 7.21869 182.756 7.6337 183.114 7.97925C183.472 8.3248 183.896 8.59359 184.362 8.76913C184.827 8.94467 185.323 9.02325 185.82 9.00005C186.465 9.00055 187.105 8.88539 187.71 8.66005V7.00005Z" fill="white"/>
<path d="M142.84 37.1C142.627 37.1701 142.404 37.2039 142.18 37.2C141.784 37.1763 141.398 37.0633 141.052 36.8693C140.705 36.6754 140.407 36.4055 140.18 36.08L138 33.43L140.8 29.98H142.7L139.94 33.37L141.43 35.17C141.523 35.309 141.648 35.4241 141.794 35.5058C141.94 35.5875 142.103 35.6335 142.27 35.64C142.477 35.6394 142.681 35.5951 142.87 35.51L142.84 37.1Z" fill="white"/>
<path d="M138.15 29.98H136.51V37.09H138.15V29.98Z" fill="white"/>
<path d="M129.46 35.54C129.696 35.66 129.955 35.7282 130.22 35.74C130.356 35.7483 130.492 35.7245 130.617 35.6707C130.742 35.6168 130.853 35.5344 130.94 35.43L128.24 30H130L131.82 33.66H131.88L133.37 30H135.13L132.51 35.61C132.365 36.0856 132.075 36.5039 131.68 36.8069C131.286 37.1098 130.807 37.2822 130.31 37.3C130.026 37.3086 129.742 37.2715 129.47 37.19L129.46 35.54Z" fill="white"/>
<path d="M154.81 30H153.05L150.19 37.09H151.83L152.45 35.56H155.35L155.97 37.09H157.67L154.81 30ZM153 34.27L153.93 31.98L154.86 34.27H153Z" fill="white"/>
<path d="M167.79 34.11H164.7V37.09H163.04V29.99H164.7V32.65H167.79V29.99H169.45V37.09H167.79V34.11Z" fill="white"/>
<path d="M160.67 29.99H159.01V37.08H160.67V29.99Z" fill="white"/>
<path d="M178.43 29.99H176.91L173.54 34.69H173.48V29.99H171.82V37.09H173.35L176.72 32.38H176.77V37.09H178.43V29.99Z" fill="white"/>
<path d="M147.27 30H144.57V37.09H146.23V34.7H147.23C147.558 34.7302 147.889 34.6917 148.202 34.5868C148.514 34.482 148.801 34.3131 149.045 34.091C149.288 33.8689 149.483 33.5985 149.616 33.297C149.749 32.9955 149.817 32.6695 149.817 32.34C149.817 32.0104 149.749 31.6845 149.616 31.383C149.483 31.0814 149.288 30.811 149.045 30.5889C148.801 30.3668 148.514 30.198 148.202 30.0931C147.889 29.9883 147.558 29.9497 147.23 29.98L147.27 30ZM147.13 33.29H146.23V31.41H147.13C147.259 31.3971 147.388 31.4118 147.511 31.4531C147.633 31.4943 147.745 31.5611 147.84 31.6491C147.935 31.7371 148.009 31.8442 148.059 31.9633C148.109 32.0824 148.133 32.2108 148.13 32.34C148.13 32.4682 148.104 32.5952 148.053 32.7128C148.002 32.8305 147.927 32.9363 147.833 33.0236C147.739 33.111 147.628 33.1779 147.507 33.2203C147.386 33.2627 147.258 33.2796 147.13 33.27V33.29Z" fill="white"/>
<path d="M159.44 27.97H158.11V29.21H159.44V27.97Z" fill="white"/>
<path d="M161.57 27.97H160.24V29.21H161.57V27.97Z" fill="white"/>
<path fill-rule="evenodd" clip-rule="evenodd" d="M11.7 39.27L11.61 39.17C11.3204 38.7077 10.9392 38.3095 10.49 38C9.68781 37.3908 8.98014 36.6663 8.39003 35.85C7.63119 34.8093 7.06553 33.6407 6.72003 32.4C6.65485 32.1763 6.60145 31.9493 6.56003 31.72C6.56003 31.56 6.47003 31.5 6.29003 31.5H0.290029C0.0300293 31.5 0.0300293 31.5 0.0300293 31.25V3.24998C0.2707 3.37737 0.504368 3.51757 0.730029 3.66998C1.27003 4.06998 1.82003 4.47998 2.34003 4.90998C3.07017 5.54247 3.70953 6.27269 4.24003 7.07998C5.03131 8.25191 5.60701 9.5557 5.94003 10.93C6.21264 12.3283 6.4096 13.7404 6.53003 15.16C6.75003 16.82 6.93003 18.48 7.13003 20.16C7.13003 20.26 7.13003 20.37 7.13003 20.47C7.13003 20.57 7.13003 20.7 6.90003 20.73C6.59821 20.734 6.29852 20.7812 6.01003 20.87C5.73213 20.9845 5.48465 21.1621 5.28711 21.3886C5.08957 21.6152 4.94738 21.8845 4.87174 22.1754C4.79611 22.4663 4.7891 22.7708 4.85128 23.0649C4.91346 23.359 5.04312 23.6346 5.23003 23.87C5.54542 24.247 5.98522 24.4988 6.47003 24.58L7.39003 24.77C7.43384 24.7865 7.48237 24.7853 7.52531 24.7666C7.56825 24.748 7.60223 24.7133 7.62003 24.67C8.02003 23.86 8.47003 23.06 8.82003 22.23C9.17003 21.4 9.46003 20.52 9.74003 19.65C10.2808 18.1539 10.6041 16.5879 10.7 15C10.7 13.81 10.7 12.61 10.63 11.41C10.54 9.63998 10.41 7.86998 10.31 6.09998C10.31 5.31998 10.23 4.53998 10.26 3.76998C10.2997 2.61715 10.6982 1.50545 11.4 0.589981C11.73 0.139981 11.71 0.239981 11.98 0.589981C12.6639 1.44647 13.0625 2.4955 13.12 3.58998C13.12 4.58998 13.12 5.58998 13.05 6.58998C12.94 8.84998 12.79 11.1 12.68 13.36C12.5945 15.3465 12.855 17.3327 13.45 19.23C13.7979 20.4416 14.2289 21.6277 14.74 22.78C15.03 23.4 15.37 24.01 15.69 24.62C15.699 24.6488 15.7137 24.6756 15.7334 24.6985C15.7531 24.7214 15.7774 24.74 15.8046 24.7531C15.8318 24.7662 15.8614 24.7736 15.8916 24.7748C15.9218 24.776 15.9519 24.7709 15.98 24.76C16.4324 24.6747 16.8798 24.5646 17.32 24.43C17.6701 24.3085 17.9742 24.082 18.1907 23.7814C18.4073 23.4807 18.5258 23.1205 18.53 22.75C18.5663 22.3043 18.445 21.86 18.1874 21.4945C17.9297 21.1291 17.552 20.8656 17.12 20.75C16.8793 20.705 16.635 20.6816 16.39 20.68H16.18C16.24 20.18 16.3 19.68 16.36 19.23C16.56 17.54 16.75 15.84 16.97 14.15C17.0637 12.9993 17.2375 11.8565 17.49 10.73C17.9073 9.15143 18.6423 7.67463 19.65 6.38998C19.9582 5.96967 20.2922 5.5689 20.65 5.18998C21.4303 4.40951 22.3115 3.73689 23.27 3.18998H23.38C23.38 3.26998 23.38 3.33998 23.38 3.40998C23.38 11.2833 23.38 19.1566 23.38 27.03V31.18C23.38 31.44 23.38 31.44 23.13 31.44H17.07C16.89 31.44 16.82 31.44 16.78 31.68C16.6294 32.5436 16.3672 33.3839 16 34.18C15.5858 35.0286 15.0613 35.8188 14.44 36.53C13.8896 37.1444 13.2837 37.7068 12.63 38.21C12.3536 38.4646 12.0994 38.7423 11.87 39.04C11.8078 39.1124 11.751 39.1892 11.7 39.27ZM2.00003 7.27998H1.93003V7.55998C1.93003 12.0933 1.93003 16.6233 1.93003 21.15C1.93003 21.27 1.93003 21.4 1.93003 21.52C1.93003 21.64 1.93003 21.66 2.07003 21.66H2.87003C2.89764 21.6642 2.92583 21.6629 2.95293 21.6561C2.98003 21.6493 3.0055 21.6372 3.02785 21.6204C3.0502 21.6036 3.06898 21.5826 3.08309 21.5585C3.0972 21.5344 3.10636 21.5077 3.11003 21.48C3.25492 21.0028 3.49304 20.5591 3.8106 20.1746C4.12815 19.7901 4.51884 19.4724 4.96003 19.24C5.00123 19.217 5.0335 19.1809 5.05164 19.1373C5.06978 19.0938 5.07273 19.0454 5.06003 19C5.06003 18.76 5.00003 18.51 4.97003 18.26C4.76003 16.45 4.53003 14.65 4.33003 12.84C4.14673 11.0665 3.50579 9.37115 2.47003 7.91998C2.31003 7.70998 2.14003 7.49998 2.00003 7.27998ZM21.47 21.67V7.28998H21.4C21.19 7.58998 20.97 7.87998 20.76 8.17998C19.8786 9.45479 19.3162 10.9226 19.12 12.46C18.84 14.64 18.6 16.83 18.33 19.01C18.33 19.17 18.39 19.24 18.5 19.31C18.753 19.4646 18.9937 19.6385 19.22 19.83C19.7396 20.2998 20.123 20.9008 20.33 21.57C20.34 21.5965 20.356 21.6202 20.3769 21.6393C20.3977 21.6584 20.4228 21.6724 20.45 21.68L21.47 21.67ZM1.91003 26.57C1.91003 27.49 1.91003 28.4 1.91003 29.31C1.91003 29.46 1.91003 29.51 2.11003 29.51H6.11003C6.27003 29.51 6.33003 29.51 6.34003 29.31C6.37008 28.4523 6.49415 27.6006 6.71003 26.77C6.71003 26.66 6.71003 26.62 6.60003 26.61L5.95003 26.46C5.27751 26.2929 4.66256 25.9474 4.17003 25.46C3.66561 25.0134 3.28936 24.4404 3.08003 23.8C3.07025 23.7459 3.03964 23.6977 2.99476 23.666C2.94988 23.6342 2.89433 23.6212 2.84003 23.63C2.60003 23.63 2.36003 23.63 2.12003 23.63C1.88003 23.63 1.91003 23.63 1.91003 23.84C1.92003 24.77 1.91003 25.67 1.91003 26.57ZM19.26 29.51C19.92 29.51 20.57 29.51 21.26 29.51C21.45 29.51 21.52 29.45 21.51 29.26C21.51 29.26 21.51 29.19 21.51 29.15C21.51 28.4 21.51 27.66 21.51 26.91C21.51 25.91 21.51 24.84 21.51 23.81C21.51 23.68 21.51 23.65 21.35 23.65H20.7C20.39 23.65 20.39 23.65 20.29 23.94C20.115 24.4623 19.8284 24.9403 19.4503 25.3409C19.0721 25.7415 18.6114 26.0551 18.1 26.26C17.6986 26.4023 17.2876 26.5159 16.87 26.6C16.74 26.6 16.7 26.69 16.74 26.82C16.9488 27.6412 17.0662 28.483 17.09 29.33C17.09 29.48 17.15 29.53 17.3 29.53L19.26 29.51ZM9.56003 25.27C9.88003 25.43 10.18 25.56 10.47 25.72C10.8772 25.9419 11.2426 26.2329 11.55 26.58C11.7 26.74 11.7 26.76 11.83 26.58C12.1984 26.1571 12.6515 25.8164 13.16 25.58C13.37 25.48 13.59 25.39 13.84 25.28C12.9601 23.7701 12.2427 22.1712 11.7 20.51C11.1588 22.1717 10.4414 23.7708 9.56003 25.28V25.27ZM14.9 31.46H12.9C12.72 31.46 12.67 31.46 12.67 31.68C12.67 32.91 12.67 34.13 12.67 35.36C12.67 35.41 12.67 35.47 12.67 35.58C13.7602 34.4287 14.5291 33.0115 14.9 31.47V31.46ZM8.50003 31.46C8.67003 32.65 10.06 35.22 10.7 35.46C10.702 35.4367 10.702 35.4133 10.7 35.39C10.7 34.11 10.7 32.83 10.7 31.56C10.7 31.42 10.63 31.4 10.51 31.4H8.51003L8.50003 31.46ZM9.50003 29.46H10.5C10.73 29.46 10.76 29.46 10.71 29.22C10.6531 28.8752 10.5522 28.5392 10.41 28.22C10.2517 27.9196 10.0288 27.658 9.75731 27.454C9.48586 27.25 9.1726 27.1086 8.84003 27.04C8.70003 27.04 8.61003 27.04 8.57003 27.2C8.3984 27.874 8.30116 28.5648 8.28003 29.26C8.28003 29.39 8.28003 29.43 8.45003 29.43L9.50003 29.46ZM13.89 29.46H14.94C15.06 29.46 15.12 29.46 15.12 29.29C15.1116 28.6142 15.0175 27.9421 14.84 27.29C14.77 27.04 14.74 27.03 14.49 27.1C13.9996 27.2285 13.5622 27.5085 13.24 27.9C12.912 28.2969 12.7162 28.7864 12.68 29.3C12.68 29.42 12.68 29.47 12.84 29.46H13.89Z" fill="#FFBD00"/>
<path d="M39.11 2.05005H38.11V37.76H39.11V2.05005Z" fill="#FFBD00"/>
</g>
<defs>
<clipPath id="clip0_55_1316">
<rect width="218.75" height="39.35" fill="white"/>
</clipPath>
</defs>
</svg>
