<svg width="218" height="50" viewBox="0 0 218 50" fill="none" xmlns="http://www.w3.org/2000/svg">
<g clip-path="url(#clip0_41_207)">
<path fill-rule="evenodd" clip-rule="evenodd" d="M3.29094 18.3212C3.07294 18.3212 2.85494 18.2402 2.68672 18.0747C2.34685 17.7419 2.33483 17.1988 2.66097 16.8523L2.66612 16.8488L19.1586 0.286753C19.4968 -0.0529024 20.046 -0.0529024 20.3842 0.286753C20.7241 0.626408 20.7241 1.17813 20.3842 1.51951L3.90718 18.0661C3.73724 18.235 3.51409 18.3212 3.29094 18.3212ZM49.2258 18.3069C49.0043 18.3069 48.7829 18.2224 48.613 18.0518L32.1531 1.51899C31.8132 1.17761 31.8132 0.627615 32.1531 0.286236C32.4913 -0.0534197 33.0406 -0.0534197 33.3804 0.286236L49.8386 16.8207C50.1785 17.1604 50.1785 17.7121 49.8386 18.0518C49.6704 18.2224 49.4472 18.3069 49.2258 18.3069ZM0.867709 27.8369C0.646276 27.8369 0.423126 27.7524 0.254905 27.5835C-0.0849685 27.2421 -0.0849685 26.6904 0.254905 26.3507L25.6545 0.838649C25.9944 0.49727 26.5436 0.49727 26.8818 0.838649L52.2797 26.3455C52.6178 26.6852 52.6178 27.2369 52.2797 27.5783C51.9398 27.918 51.3922 27.918 51.0523 27.5783L26.269 2.68693L1.48051 27.5835C1.31057 27.7524 1.08914 27.8369 0.867709 27.8369Z" fill="#EF5355"/>
<path fill-rule="evenodd" clip-rule="evenodd" d="M3.44596 32.324C3.22452 32.324 3.00137 32.2395 2.83315 32.0706C2.49328 31.7275 2.49328 31.1775 2.83315 30.8378L25.6545 7.91539C25.9944 7.57573 26.5437 7.57573 26.8818 7.91539L49.698 30.8326C50.0379 31.1723 50.0379 31.724 49.698 32.0654C49.3598 32.405 48.8106 32.405 48.4724 32.0654L26.269 9.76366L4.05876 32.0706C3.88882 32.2395 3.66739 32.324 3.44596 32.324Z" fill="#EF5355"/>
<path fill-rule="evenodd" clip-rule="evenodd" d="M6.02402 36.811C5.80259 36.811 5.58115 36.7265 5.41122 36.5576C5.07134 36.2162 5.07134 35.6645 5.41122 35.3248L25.656 14.992C25.9942 14.6524 26.5435 14.6524 26.8816 14.992L47.1196 35.3179C47.4595 35.6576 47.4595 36.2093 47.1196 36.5507C46.7814 36.8903 46.2321 36.8903 45.894 36.5507L26.2688 16.8403L6.63682 36.5576C6.4686 36.7265 6.24545 36.811 6.02402 36.811Z" fill="#EF5355"/>
<path fill-rule="evenodd" clip-rule="evenodd" d="M8.60312 41.2983C8.38169 41.2983 8.15854 41.2138 7.99032 41.0448C7.65044 40.7034 7.65044 40.1517 7.99032 39.8121L25.6552 22.069C25.9951 21.7293 26.5426 21.7293 26.8825 22.069L44.5422 39.8052C44.8804 40.1448 44.8804 40.6965 44.5422 41.0379C44.2024 41.3776 43.6531 41.3776 43.3149 41.0379L26.2697 23.9172L9.21592 41.0448C9.0477 41.2138 8.82455 41.2983 8.60312 41.2983Z" fill="#EF5355"/>
<path fill-rule="evenodd" clip-rule="evenodd" d="M11.1812 45.7853C10.9598 45.7853 10.7366 45.7008 10.5684 45.5319C10.2285 45.1905 10.2285 44.6388 10.5684 44.2991L25.655 29.1474C25.9949 28.806 26.5425 28.806 26.8823 29.1474L41.9604 44.2922C42.2985 44.6319 42.2985 45.1836 41.9604 45.525C41.6222 45.8646 41.0729 45.8646 40.7331 45.525L26.2695 30.9957L11.794 45.5319C11.6258 45.7008 11.4026 45.7853 11.1812 45.7853Z" fill="#EF5355"/>
<path fill-rule="evenodd" clip-rule="evenodd" d="M37.1187 48.6073C36.8972 48.6073 36.6741 48.5211 36.5059 48.3521L26.2685 38.071L16.0328 48.3521C15.6946 48.6917 15.1453 48.6917 14.8054 48.3521C14.4673 48.0107 14.4673 47.459 14.8054 47.1193L25.6557 36.221C25.9955 35.8814 26.5431 35.8814 26.883 36.221L37.7315 47.1193C38.0714 47.459 38.0714 48.0107 37.7315 48.3521C37.5615 48.5211 37.3401 48.6073 37.1187 48.6073Z" fill="#EF5355"/>
<path fill-rule="evenodd" clip-rule="evenodd" d="M30.0732 48.6073C29.8517 48.6073 29.6286 48.5211 29.4604 48.3521L26.2693 45.1469L23.0783 48.3521C22.7401 48.6918 22.1908 48.6918 21.851 48.3521C21.5128 48.0107 21.5128 47.459 21.851 47.1194L25.6548 43.2987C25.981 42.9711 26.5577 42.9711 26.8821 43.2987L30.686 47.1194C31.0259 47.459 31.0259 48.0107 30.686 48.3521C30.516 48.5211 30.2946 48.6073 30.0732 48.6073Z" fill="#EF5355"/>
<path fill-rule="evenodd" clip-rule="evenodd" d="M67.1396 34.821H67.9549C68.0785 34.821 68.2107 34.8175 68.3497 34.8089C68.487 34.7986 68.6123 34.7727 68.7239 34.7279C68.8372 34.6831 68.9299 34.6141 69.0037 34.5193C69.0758 34.4244 69.1136 34.29 69.1136 34.1193C69.1136 33.9589 69.081 33.8313 69.0157 33.7365C68.9522 33.6417 68.8681 33.5675 68.7686 33.5193C68.669 33.4693 68.5523 33.4331 68.4235 33.4175C68.2948 33.3986 68.1678 33.39 68.0442 33.39H67.1396V34.821ZM65.7595 32.2158H68.1849C68.5025 32.2158 68.8063 32.2469 69.093 32.3089C69.3779 32.3727 69.6285 32.4762 69.8448 32.621C70.0611 32.7675 70.231 32.9624 70.3581 33.2072C70.4851 33.4537 70.5486 33.7606 70.5486 34.1296C70.5486 34.571 70.4336 34.9503 70.2036 35.2624C69.9718 35.5744 69.6371 35.771 69.1925 35.8537L70.7872 38.5124H69.1325L67.821 35.9969H67.1396V38.5124H65.7595V32.2158Z" fill="white"/>
<path fill-rule="evenodd" clip-rule="evenodd" d="M73.672 32.2156H77.9307V33.4949H75.0538V34.669H77.7711V35.9501H75.0538V37.2311H78.0904V38.5104H73.672V32.2156Z" fill="white"/>
<path fill-rule="evenodd" clip-rule="evenodd" d="M81.3226 32.2156H83.1987L85.8645 36.5897H85.8817V32.2156H87.2618V38.5104H85.456L82.7198 34.0311H82.7027V38.5104H81.3226V32.2156Z" fill="white"/>
<path fill-rule="evenodd" clip-rule="evenodd" d="M91.7595 35.3648C91.7595 35.6613 91.8041 35.9303 91.8968 36.1786C91.9878 36.4234 92.1182 36.6372 92.2899 36.8182C92.4616 36.9993 92.6658 37.1389 92.9044 37.2406C93.1447 37.3406 93.4108 37.3924 93.706 37.3924C94.0013 37.3924 94.2691 37.3406 94.5077 37.2406C94.7463 37.1389 94.9522 36.9993 95.1222 36.8182C95.2938 36.6372 95.426 36.4234 95.517 36.1786C95.6097 35.9303 95.6543 35.6613 95.6543 35.3648C95.6543 35.0734 95.6097 34.8044 95.517 34.5544C95.426 34.3062 95.2938 34.0924 95.1222 33.9096C94.9522 33.7303 94.7463 33.5889 94.5077 33.4872C94.2691 33.3889 94.0013 33.3355 93.706 33.3355C93.4108 33.3355 93.1447 33.3889 92.9044 33.4872C92.6658 33.5889 92.4616 33.7303 92.2899 33.9096C92.1182 34.0924 91.9878 34.3062 91.8968 34.5544C91.8041 34.8044 91.7595 35.0734 91.7595 35.3648ZM90.3245 35.3648C90.3245 34.8596 90.4086 34.4027 90.5768 33.9941C90.745 33.5855 90.9802 33.2372 91.2806 32.951C91.581 32.6631 91.938 32.4424 92.3517 32.2872C92.7654 32.1337 93.2168 32.0562 93.706 32.0562C94.197 32.0562 94.6484 32.1337 95.0604 32.2872C95.4741 32.4424 95.8311 32.6631 96.1332 32.951C96.4336 33.2372 96.6688 33.5855 96.837 33.9941C97.0052 34.4027 97.0876 34.8596 97.0876 35.3648C97.0876 35.8682 97.0052 36.3251 96.837 36.7337C96.6688 37.1424 96.4336 37.4889 96.1332 37.7768C95.8311 38.0648 95.4741 38.2855 95.0604 38.4406C94.6484 38.5958 94.197 38.6717 93.706 38.6717C93.2168 38.6717 92.7654 38.5958 92.3517 38.4406C91.938 38.2855 91.581 38.0648 91.2806 37.7768C90.9802 37.4889 90.745 37.1424 90.5768 36.7337C90.4086 36.3251 90.3245 35.8682 90.3245 35.3648Z" fill="white"/>
<path fill-rule="evenodd" clip-rule="evenodd" d="M99.5316 32.2156H101.107L102.657 36.3414H102.675L104.25 32.2156H105.728L103.143 38.5104H102.036L99.5316 32.2156Z" fill="white"/>
<path fill-rule="evenodd" clip-rule="evenodd" d="M110.615 34.0481L109.855 36.005H111.386L110.615 34.0481ZM110.085 32.217H111.227L113.952 38.5119H112.395L111.857 37.1774H109.421L108.899 38.5119H107.376L110.085 32.217Z" fill="white"/>
<path fill-rule="evenodd" clip-rule="evenodd" d="M117.105 33.4432H115.317V32.2156H120.274V33.4432H118.486V38.5104H117.105V33.4432Z" fill="white"/>
<path fill-rule="evenodd" clip-rule="evenodd" d="M123.082 38.5104H124.463V32.2156H123.082V38.5104Z" fill="white"/>
<path fill-rule="evenodd" clip-rule="evenodd" d="M128.941 35.3648C128.941 35.6613 128.985 35.9303 129.076 36.1786C129.169 36.4234 129.301 36.6372 129.473 36.8182C129.643 36.9993 129.847 37.1389 130.087 37.2406C130.326 37.3406 130.594 37.3924 130.887 37.3924C131.184 37.3924 131.45 37.3406 131.691 37.2406C131.928 37.1389 132.134 36.9993 132.305 36.8182C132.477 36.6372 132.607 36.4234 132.698 36.1786C132.789 35.9303 132.836 35.6613 132.836 35.3648C132.836 35.0734 132.789 34.8044 132.698 34.5544C132.607 34.3062 132.477 34.0924 132.305 33.9096C132.134 33.7303 131.928 33.5889 131.691 33.4872C131.45 33.3889 131.184 33.3355 130.887 33.3355C130.594 33.3355 130.326 33.3889 130.087 33.4872C129.847 33.5889 129.643 33.7303 129.473 33.9096C129.301 34.0924 129.169 34.3062 129.076 34.5544C128.985 34.8044 128.941 35.0734 128.941 35.3648ZM127.506 35.3648C127.506 34.8596 127.59 34.4027 127.76 33.9941C127.926 33.5855 128.162 33.2372 128.462 32.951C128.762 32.6631 129.119 32.4424 129.535 32.2872C129.947 32.1337 130.398 32.0562 130.887 32.0562C131.378 32.0562 131.83 32.1337 132.243 32.2872C132.655 32.4424 133.012 32.6631 133.315 32.951C133.615 33.2372 133.85 33.5855 134.017 33.9941C134.187 34.4027 134.269 34.8596 134.269 35.3648C134.269 35.8682 134.187 36.3251 134.017 36.7337C133.85 37.1424 133.615 37.4889 133.315 37.7768C133.012 38.0648 132.655 38.2855 132.243 38.4406C131.83 38.5958 131.378 38.6717 130.887 38.6717C130.398 38.6717 129.947 38.5958 129.535 38.4406C129.119 38.2855 128.762 38.0648 128.462 37.7768C128.162 37.4889 127.926 37.1424 127.76 36.7337C127.59 36.3251 127.506 35.8682 127.506 35.3648Z" fill="white"/>
<path fill-rule="evenodd" clip-rule="evenodd" d="M137.335 32.2156H139.211L141.877 36.5897H141.892V32.2156H143.272V38.5104H141.468L138.73 34.0311H138.715V38.5104H137.335V32.2156Z" fill="white"/>
<path fill-rule="evenodd" clip-rule="evenodd" d="M67.3054 16.9827H73.4781V11.7603H67.3054V16.9827ZM65.7588 23.2931H67.3054V18.4551H75.0229V10.2827H65.7588V23.2931ZM82.1998 16.9931H88.4548V11.7603H82.1998V16.9931ZM89.8967 18.3293V10.2827H80.6549V23.2931H82.1998V18.3293H86.2611L88.7655 23.2931H90.4409L87.9433 18.3293H89.8967Z" fill="white"/>
<path fill-rule="evenodd" clip-rule="evenodd" d="M120.207 16.4258L115.724 10.2827H113.825V23.2931H115.37V12.3775L120.133 18.9189H120.281L125.044 12.3775V23.2931H126.591V10.2827H124.693L120.207 16.4258Z" fill="white"/>
<path fill-rule="evenodd" clip-rule="evenodd" d="M133.967 16.9827H140.14V11.7603H133.967V16.9827ZM132.42 23.2931H133.967V18.4551H141.685V10.2827H132.42V23.2931ZM148.861 16.9931H155.116V11.7603H148.861V16.9931ZM156.558 18.3293V10.2827H147.317V23.2931H148.861V18.3293H152.923L155.427 23.2931H157.102L154.605 18.3293H156.558Z" fill="white"/>
<path fill-rule="evenodd" clip-rule="evenodd" d="M166.885 16.7896L163.074 10.2844H161.325L166.113 18.593V23.293H167.656V18.593L172.443 10.2844H170.694L166.885 16.7896Z" fill="white"/>
<path fill-rule="evenodd" clip-rule="evenodd" d="M178.837 10.2827H177.292V23.2913H185.115V21.8189H178.837V10.2827Z" fill="white"/>
<path fill-rule="evenodd" clip-rule="evenodd" d="M191.493 16.6586H198.51V11.7603H191.493V16.6586ZM189.948 23.2931H191.493V18.131H198.51V23.2931H200.057V10.2827H189.948V23.2931ZM104.589 21.8158H99.1012L96.1917 16.7882L99.1012 11.7606H104.589L107.497 16.7882L104.589 21.8158ZM105.535 10.2831H98.1554L94.4134 16.7882L98.1554 23.2917H105.535L109.277 16.7882L105.535 10.2831ZM212.996 21.8158H207.508L207.48 21.8572L207.444 21.821V11.7606H212.996L215.903 16.7882L212.996 21.8158ZM213.941 10.2831H205.898V23.2917H213.941L217.682 16.7882L213.941 10.2831Z" fill="white"/>
</g>
<defs>
<clipPath id="clip0_41_207">
<rect width="218" height="50" fill="white"/>
</clipPath>
</defs>
</svg>
