<svg width="179" height="31" viewBox="0 0 179 31" fill="none" xmlns="http://www.w3.org/2000/svg">
<g clip-path="url(#clip0_41_232)">
<path fill-rule="evenodd" clip-rule="evenodd" d="M8.746 18.3831C6.231 17.4011 4.059 16.5531 4.059 14.5961C4.059 12.3361 6.117 11.5291 8.044 11.5291C11.376 11.5291 13.146 13.3711 13.164 13.3891L13.334 13.5711L14.825 11.0681L14.734 10.9651C14.648 10.8691 12.582 8.60707 8.128 8.60707C4.581 8.60707 0.764 10.4811 0.764 14.5971C0.764 18.4881 4.278 19.8801 7.376 21.1081C9.895 22.1061 12.069 22.9681 12.069 24.9071C12.069 27.0841 10.048 28.0581 8.044 28.0581C4.256 28.0581 1.947 25.5981 1.924 25.5731L1.771 25.4081L0 27.7551L0.1 27.8701C0.13 27.9011 0.803 28.6631 2.12 29.4311C3.328 30.1381 5.33 30.9811 8.002 30.9811C12.269 30.9811 15.366 28.4261 15.366 24.9071C15.366 20.9671 11.848 19.5931 8.746 18.3831ZM38.04 19.6901C38.04 24.3831 34.53 28.0581 30.05 28.0581C25.572 28.0581 22.062 24.3831 22.062 19.6911C22.062 15.1361 25.572 11.5711 30.051 11.5711C34.531 11.5711 38.041 15.1361 38.041 19.6911L38.04 19.6901ZM30.05 8.60806C23.724 8.60806 18.767 13.4761 18.767 19.6921C18.767 26.0221 23.724 30.9821 30.051 30.9821C36.379 30.9821 41.336 26.0221 41.336 19.6921C41.336 13.4761 36.379 8.60806 30.051 8.60806H30.05ZM55.294 0.691065C54.8558 0.629312 54.4135 0.600898 53.971 0.606065C51.735 0.606065 46.534 1.38307 46.534 8.58807V9.40106H43.677V12.1531H46.534V30.4961H49.742V12.1531H55.117V9.40006H49.742V8.58707C49.742 6.69606 50.331 3.52207 54.262 3.52207C54.818 3.52207 55.223 3.60207 55.227 3.60207L55.45 3.64707V0.718065L55.294 0.691065ZM70.44 27.8921L70.208 27.9421C69.8995 28 69.5859 28.0272 69.272 28.0231C67.55 28.0231 64.661 27.3131 64.661 22.5601V12.2121H70.016V9.40706H64.66V3.24007H61.43V9.40606H58.583V12.2111H61.387V22.8561C61.387 29.9411 66.167 30.9991 69.017 30.9991C69.79 30.9991 70.263 30.9151 70.282 30.9111L70.44 30.8831V27.8921ZM76.967 24.1271C76.967 24.1271 79.312 26.4741 82.787 26.4741C84.296 26.4741 85.592 25.8041 85.592 24.5471C85.592 21.3621 75.208 21.7811 75.208 14.9101C75.208 10.9301 78.768 8.62406 83.373 8.62406C88.189 8.62406 90.533 11.0541 90.533 11.0541L88.566 14.9941C88.566 14.9941 86.598 13.1501 83.332 13.1501C81.95 13.1501 80.61 13.7361 80.61 15.0771C80.61 18.0941 90.995 17.7171 90.995 24.5871C90.995 28.1491 87.896 30.9971 82.83 30.9971C77.511 30.9971 74.537 27.8551 74.537 27.8551L76.967 24.1271ZM109.43 17.1731C109.346 14.2811 107.545 12.7301 105.2 12.7301C102.48 12.7301 100.594 14.4071 100.091 17.1731H109.43ZM105.326 8.62406C111.482 8.62406 114.79 13.1071 114.79 18.7641C114.79 19.3921 114.665 20.8181 114.665 20.8181H99.925C100.259 24.5481 103.15 26.4741 106.331 26.4741C109.765 26.4741 112.486 24.1271 112.486 24.1271L114.539 27.9411C114.539 27.9411 111.272 30.9981 105.954 30.9981C98.877 30.9981 94.48 25.8881 94.48 19.8121C94.48 13.2341 98.962 8.62406 105.326 8.62406ZM120.142 9.12807H125.252V12.8151C125.252 13.6101 125.168 14.3231 125.168 14.3231H125.251C126.215 11.2651 128.769 8.83406 132.035 8.83406C132.538 8.83406 132.998 8.91807 132.998 8.91807V14.1561C132.998 14.1561 132.454 14.0721 131.742 14.0721C129.48 14.0721 126.926 15.3701 125.922 18.5551C125.587 19.6021 125.462 20.7751 125.462 22.0321V30.4961H120.142V9.12807ZM135.314 9.12807H140.925L145.364 22.3671C145.784 23.6251 146.077 25.0451 146.116 25.0451H146.202C146.243 25.0451 146.536 23.6251 146.955 22.3671L151.395 9.12706H157.005L149.342 30.4961H143.061L135.314 9.12807ZM173.265 17.1731C173.182 14.2811 171.381 12.7301 169.036 12.7301C166.314 12.7301 164.429 14.4071 163.927 17.1731H173.265ZM169.162 8.62406C175.318 8.62406 178.626 13.1071 178.626 18.7641C178.626 19.3921 178.5 20.8181 178.5 20.8181H163.76C164.095 24.5481 166.984 26.4741 170.167 26.4741C173.6 26.4741 176.322 24.1271 176.322 24.1271L178.375 27.9411C178.375 27.9411 175.108 30.9981 169.79 30.9981C162.714 30.9981 158.316 25.8881 158.316 19.8121C158.316 13.2341 162.797 8.62406 169.162 8.62406Z" fill="white"/>
</g>
<defs>
<clipPath id="clip0_41_232">
<rect width="179" height="31" fill="white"/>
</clipPath>
</defs>
</svg>
