<svg width="175" height="96" viewBox="0 0 175 96" fill="none" xmlns="http://www.w3.org/2000/svg">
<path d="M38.5671 67.1439C38.5671 70.0475 36.1982 72.3812 33.3119 72.3812C30.3985 72.3812 28.0568 70.0203 28.0568 67.1439C28.0568 64.2403 30.4257 61.8794 33.3119 61.8794C36.1982 61.9065 38.5671 64.2403 38.5671 67.1439Z" fill="#00955D"/>
<path d="M25.579 72.8969C25.579 75.1221 23.7546 76.9402 21.5219 76.9402C19.2891 76.9402 17.4648 75.1221 17.4648 72.8969C17.4648 70.6717 19.2891 68.8535 21.5219 68.8535C23.7546 68.8535 25.579 70.6445 25.579 72.8969Z" fill="#00955D"/>
<path d="M54.4414 94.9046C53.7062 92.6251 52.5899 89.0702 51.9908 87.2249C55.6123 86.2752 55.1494 85.7867 55.1494 69.5048V54.3084H59.5332H63.917V70.0475C63.917 84.2671 63.8081 86.0581 62.8551 88.6903C61.7659 91.6753 59.1792 94.2804 54.4414 94.9046ZM78.0487 83.1273C73.4198 81.6348 70.5064 78.0799 69.3628 72.0014C69.0088 70.0475 69.1449 67.1982 69.635 64.9187C70.0707 62.8021 71.2415 60.1698 72.0584 59.003C73.3654 57.1306 74.155 56.018 77.7764 54.7425C80.1453 53.9013 83.9029 54.1998 85.945 55.041C89.9477 56.7235 91.772 58.9216 93.324 64.0232C94.7672 68.7178 93.8686 74.7693 91.173 78.8669C88.6951 82.6117 82.5415 84.5927 78.0487 83.1273ZM82.841 75.8276C84.1752 75.312 85.346 72.0014 85.346 68.6907C85.346 61.9066 80.7444 59.0844 78.4844 64.4845C76.5784 69.0163 78.2938 76.0718 81.3162 76.1533C81.6701 76.1533 82.3509 76.0176 82.841 75.8276ZM102.582 82.9916C98.7153 81.3092 97.9801 78.5141 97.9529 65.6243V55.3667H102.337H106.721L106.748 64.8102C106.775 74.9864 106.639 77.0759 109.144 77.0759C109.879 77.0759 112.765 76.099 112.765 74.4708L113.01 55.638H121.533V64.5117C121.533 76.3703 120.961 75.6376 124.256 76.1804C123.466 79.1383 123.493 79.1654 122.459 82.9916C120.961 83.7243 116.142 85.4068 113.528 80.685C109.144 83.8057 105.196 84.1585 102.582 82.9916ZM128.15 69.6405V55.3938C128.15 55.3938 133.377 55.421 136.291 55.421C136.291 57.2391 136.345 56.2622 136.345 57.809C140.239 53.9284 142.799 54.8782 145.739 56.5878C145.14 58.7859 145.004 59.1115 143.643 63.589C141.791 62.5579 136.944 60.0613 136.944 69.1249L136.972 83.7515L128.15 83.86V69.6405ZM150.096 69.6405V55.3938H154.425C158.428 55.3938 156.086 55.3667 158.455 55.3667V57.809C158.455 57.809 160.361 54.7154 168.584 55.6923C170.109 55.8823 171.933 57.1577 172.914 59.2201C173.975 61.4995 174.221 63.1277 174.221 72.517L174.248 83.6972L164.99 83.7786L165.044 73.4939C164.936 66.954 165.997 60.007 161.205 61.1468L158.646 62.2322L158.618 83.7786L150.123 83.8872V69.6405H150.096ZM3.14251 54.824L0.800842 53.7928V50.265V46.7373L2.43457 47.5514C5.81093 49.2338 10.222 47.5514 8.7244 45.1905C8.39765 44.6749 7.66248 43.9965 7.09068 43.698C2.73408 41.31 0.828071 38.8134 0.828071 35.557C0.828071 31.6494 3.38757 28.8 7.90754 27.199C9.92246 26.4663 13.8979 25.9507 17.846 28.2302V34.553L15.1231 34.2273C12.1552 33.8746 10.5487 34.6072 10.7121 36.2897C10.7938 37.0224 12.128 38.3521 14.0068 39.8175C19.0169 43.6437 19.0169 47.7413 18.2 50.8077C17.1925 54.5254 12.9176 55.8551 8.23428 55.8551C6.70947 55.8551 4.42226 55.3938 3.14251 54.824ZM30.2079 54.7968C27.4578 53.44 26.0146 52.056 24.8983 49.8037C22.5838 45.0548 22.1754 40.6858 23.5913 35.9912C25.1161 30.9981 27.3488 28.3658 31.8688 27.1718C34.0743 26.5748 35.7625 26.3849 37.968 26.9819C42.4063 28.1759 45.2926 30.9438 46.8446 35.9098C47.4709 37.9722 47.5526 40.6044 47.5526 42.0698C47.5526 45.8146 46.3545 48.9082 44.7752 51.2691C41.889 55.5566 35.0546 57.2391 30.2079 54.7968ZM37.8864 46.9272C39.1389 45.0277 39.5473 39.4647 38.6215 37.2124C37.6141 34.7972 36.7972 34.0374 35.1363 34.0374C32.9307 34.0374 31.5421 36.7782 31.5421 41.1471C31.5421 45.7061 32.9035 48.2569 35.3541 48.2569C36.4977 48.284 37.2601 47.8499 37.8864 46.9272ZM55.1494 29.3156V19.2751L51.9091 19.1937C51.9091 16.9142 51.8275 16.1001 51.8275 12.8438C53.2706 12.8438 53.2434 12.7895 55.1494 12.7895C55.1494 5.95109 57.3821 3.67162 59.3698 2.50475C61.1397 1.47356 63.563 0.306694 68.3825 1.60925C68.3825 3.53594 68.4914 4.81136 68.4914 6.76518C64.0259 6.76518 63.9987 10.1844 63.9987 12.7081C66.0136 12.7081 65.224 12.6809 67.0755 12.6809C67.0755 15.3132 67.0755 16.263 67.0755 19.248H63.8898V29.6413V40.0345H55.0677C55.0949 36.6425 55.1494 34.8243 55.1494 29.3156ZM80.1181 39.4375C75.7615 37.8365 74.8902 35.557 74.8902 25.7879V18.1897H73.2292C71.65 18.1897 71.5955 18.0811 71.5955 15.8559C71.5955 13.7935 71.9495 13.1694 74.6179 10.2387C80.6627 3.69876 80.9894 3.40026 82.3236 3.40026C83.6034 3.40026 83.6578 3.53594 83.6578 7.49787V11.5955H86.4079H89.158V14.879V18.1625H86.4079H83.6578V24.0783C83.6578 30.7267 83.9301 31.2966 87.007 31.2966L88.9674 30.8624L88.9947 37.9179C84.6381 40.7401 82.0786 40.1431 80.1181 39.4375Z" fill="#1D1A17"/>
<path d="M14.633 69.3421C14.633 70.9431 13.3261 72.2457 11.7196 72.2457C10.1131 72.2457 8.80609 70.9431 8.80609 69.3421C8.80609 67.741 10.1131 66.4385 11.7196 66.4385C13.3261 66.4385 14.633 67.741 14.633 69.3421Z" fill="#00955D"/>
<path d="M8.47934 63.6977C8.47934 64.5661 7.77139 65.2716 6.90007 65.2716C6.02875 65.2716 5.29358 64.5661 5.29358 63.6977C5.29358 62.8293 6.00153 62.1238 6.90007 62.1238C7.77139 62.1238 8.47934 62.8293 8.47934 63.6977Z" fill="#00955D"/>
<path d="M63.8626 47.3343C63.8626 49.7495 61.9021 51.7033 59.4787 51.7033C57.0554 51.7033 55.0949 49.7495 55.0949 47.3343C55.0949 44.9192 57.0554 42.9653 59.4787 42.9653C61.9021 42.9653 63.8626 44.9192 63.8626 47.3343Z" fill="#1D1A17"/>
</svg>
