<svg width="26" height="1" viewBox="0 0 26 1" fill="none" xmlns="http://www.w3.org/2000/svg">
<path d="M23.0694 0.0625C23.7323 0.0625 24.2957 0.0716146 24.7598 0.0898438C25.2238 0.108073 25.4558 0.130208 25.4558 0.15625V0.625C25.4558 0.667969 25.2487 0.708659 24.8344 0.74707C24.42 0.784831 23.8524 0.817871 23.1315 0.846191C22.4106 0.874512 21.5695 0.89681 20.6083 0.913086C19.6305 0.929362 18.5947 0.9375 17.5009 0.9375H17.1031C16.7717 0.9375 16.49 0.932943 16.2579 0.923828C16.0259 0.914714 15.9099 0.903646 15.9099 0.890625V0.796875C15.9099 0.783854 16.0259 0.772786 16.2579 0.763672C16.49 0.754557 16.7717 0.75 17.1031 0.75H17.5009C18.3793 0.75 19.1292 0.737793 19.7507 0.713379C20.3721 0.688965 20.6829 0.659505 20.6829 0.625V0.5H16.7054C16.0425 0.5 15.479 0.490885 15.015 0.472656C14.5509 0.454427 14.3189 0.432292 14.3189 0.40625V0.15625C14.3189 0.130208 14.5509 0.108073 15.015 0.0898438C15.479 0.0716146 16.0425 0.0625 16.7054 0.0625H23.0694ZM8.75045 0.0625C9.41336 0.0625 9.97684 0.0716146 10.4409 0.0898438C10.9049 0.108073 11.1369 0.130208 11.1369 0.15625V0.625C11.1369 0.667969 10.9298 0.708659 10.5155 0.74707C10.1011 0.784831 9.53351 0.817871 8.81259 0.846191C8.09168 0.874512 7.25061 0.89681 6.28938 0.913086C5.31159 0.929362 4.27579 0.9375 3.18198 0.9375H2.78423C2.45278 0.9375 2.17104 0.932943 1.93902 0.923828C1.707 0.914714 1.59099 0.903646 1.59099 0.890625V0.796875C1.59099 0.783854 1.707 0.772786 1.93902 0.763672C2.17104 0.754557 2.45278 0.75 2.78423 0.75H3.18198C4.06034 0.75 4.81026 0.737793 5.43174 0.713379C6.05322 0.688965 6.36396 0.659505 6.36396 0.625V0.5H2.38649C1.72357 0.5 1.1601 0.490885 0.696058 0.472656C0.232019 0.454427 0 0.432292 0 0.40625V0.15625C0 0.130208 0.232019 0.108073 0.696058 0.0898438C1.1601 0.0716146 1.72357 0.0625 2.38649 0.0625H8.75045Z" fill="white"/>
</svg>
