<svg width="49" height="3" viewBox="0 0 49 3" fill="none" xmlns="http://www.w3.org/2000/svg">
<path d="M44.4062 0.1875C45.6823 0.1875 46.7669 0.214844 47.6602 0.269531C48.5534 0.324219 49 0.390625 49 0.46875V1.875C49 2.00391 48.6012 2.12598 47.8037 2.24121C47.0062 2.35449 45.9136 2.45361 44.5259 2.53857C43.1382 2.62354 41.5192 2.69043 39.6689 2.73926C37.7868 2.78809 35.793 2.8125 33.6875 2.8125H32.9219C32.2839 2.8125 31.7415 2.79883 31.2949 2.77148C30.8483 2.74414 30.625 2.71094 30.625 2.67188V2.39062C30.625 2.35156 30.8483 2.31836 31.2949 2.29102C31.7415 2.26367 32.2839 2.25 32.9219 2.25H33.6875C35.3783 2.25 36.8218 2.21338 38.0181 2.14014C39.2144 2.06689 39.8125 1.97852 39.8125 1.875V1.5H32.1562C30.8802 1.5 29.7956 1.47266 28.9023 1.41797C28.0091 1.36328 27.5625 1.29688 27.5625 1.21875V0.46875C27.5625 0.390625 28.0091 0.324219 28.9023 0.269531C29.7956 0.214844 30.8802 0.1875 32.1562 0.1875H44.4062ZM16.8438 0.1875C18.1198 0.1875 19.2044 0.214844 20.0977 0.269531C20.9909 0.324219 21.4375 0.390625 21.4375 0.46875V1.875C21.4375 2.00391 21.0387 2.12598 20.2412 2.24121C19.4437 2.35449 18.3511 2.45361 16.9634 2.53857C15.5757 2.62354 13.9567 2.69043 12.1064 2.73926C10.2243 2.78809 8.23047 2.8125 6.125 2.8125H5.35938C4.72135 2.8125 4.17904 2.79883 3.73242 2.77148C3.28581 2.74414 3.0625 2.71094 3.0625 2.67188V2.39062C3.0625 2.35156 3.28581 2.31836 3.73242 2.29102C4.17904 2.26367 4.72135 2.25 5.35938 2.25H6.125C7.81576 2.25 9.25928 2.21338 10.4556 2.14014C11.6519 2.06689 12.25 1.97852 12.25 1.875V1.5H4.59375C3.31771 1.5 2.23307 1.47266 1.33984 1.41797C0.446615 1.36328 0 1.29688 0 1.21875V0.46875C0 0.390625 0.446615 0.324219 1.33984 0.269531C2.23307 0.214844 3.31771 0.1875 4.59375 0.1875H16.8438Z" fill="#FFCE84"/>
</svg>
