<svg fill="none" xmlns="http://www.w3.org/2000/svg">
    <symbol id="burger">
        <path d="M4 16H28M4 8H28M4 24H28" stroke="#5A83ED" stroke-width="3" stroke-linecap="round" stroke-linejoin="round"/>
    </symbol>
    <symbol id="close">
        <path d="M25.3334 6.66675L6.66669 25.3334M6.66669 6.66675L25.3334 25.3334" stroke="#5A83ED" stroke-width="3" stroke-linecap="round" stroke-linejoin="round"/>
    </symbol>
    <symbol id="clock">
        <path d="M41.25 11.25H18.75C15.5625 11.25 13.125 8.8125 13.125 5.625H46.875C46.875 8.8125 44.4375 11.25 41.25 11.25Z" stroke="currentColor" stroke-width="3" stroke-miterlimit="10" stroke-linecap="round" stroke-linejoin="round"/>
        <path d="M18.75 48.75H41.25C44.4375 48.75 46.875 51.1875 46.875 54.375H13.125C13.125 51.1875 15.5625 48.75 18.75 48.75Z" stroke="currentColor" stroke-width="3" stroke-miterlimit="10" stroke-linecap="round" stroke-linejoin="round"/>
        <path d="M43.125 48.75V41.25C43.125 40.125 42.5625 39 41.625 38.25L34.6875 33C32.625 31.5 32.625 28.5 34.6875 27L41.625 21.75C42.5625 21 43.125 19.875 43.125 18.75V11.25" stroke="currentColor" stroke-width="3" stroke-miterlimit="10" stroke-linecap="round" stroke-linejoin="round"/>
        <path d="M16.875 11.25V18.75C16.875 19.875 17.4375 21 18.375 21.75L25.3125 27C27.375 28.5 27.375 31.5 25.3125 33L18.375 38.25C17.4375 39 16.875 40.125 16.875 41.25V48.75" stroke="currentColor" stroke-width="3" stroke-miterlimit="10" stroke-linecap="round" stroke-linejoin="round"/>
        <path d="M20.625 48.75L30 39.375L39.375 48.75H20.625Z" stroke="currentColor" stroke-width="3" stroke-miterlimit="10" stroke-linecap="round" stroke-linejoin="round"/>
        <path d="M30 22.5L24.375 18.75H35.625L30 22.5Z" stroke="currentColor" stroke-width="3" stroke-miterlimit="10" stroke-linecap="round" stroke-linejoin="round"/>
    </symbol>
    <symbol id="clock-sm">
        <path d="M34.375 9.375H15.625C12.9687 9.375 10.9375 7.34375 10.9375 4.6875H39.0625C39.0625 7.34375 37.0313 9.375 34.375 9.375Z" stroke="currentColor" stroke-width="2" stroke-miterlimit="10" stroke-linecap="round" stroke-linejoin="round"/>
        <path d="M15.625 40.625H34.375C37.0313 40.625 39.0625 42.6562 39.0625 45.3125H10.9375C10.9375 42.6562 12.9687 40.625 15.625 40.625Z" stroke="currentColor" stroke-width="2" stroke-miterlimit="10" stroke-linecap="round" stroke-linejoin="round"/>
        <path d="M35.9375 40.625V34.375C35.9375 33.4375 35.4688 32.5 34.6875 31.875L28.9063 27.5C27.1875 26.25 27.1875 23.75 28.9063 22.5L34.6875 18.125C35.4688 17.5 35.9375 16.5625 35.9375 15.625V9.375" stroke="currentColor" stroke-width="2" stroke-miterlimit="10" stroke-linecap="round" stroke-linejoin="round"/>
        <path d="M14.0625 9.375V15.625C14.0625 16.5625 14.5313 17.5 15.3125 18.125L21.0938 22.5C22.8125 23.75 22.8125 26.25 21.0938 27.5L15.3125 31.875C14.5313 32.5 14.0625 33.4375 14.0625 34.375V40.625" stroke="currentColor" stroke-width="2" stroke-miterlimit="10" stroke-linecap="round" stroke-linejoin="round"/>
        <path d="M17.1875 40.625L25 32.8125L32.8125 40.625H17.1875Z" stroke="currentColor" stroke-width="2" stroke-miterlimit="10" stroke-linecap="round" stroke-linejoin="round"/>
        <path d="M25 18.75L20.3125 15.625H29.6875L25 18.75Z" stroke="currentColor" stroke-width="2" stroke-miterlimit="10" stroke-linecap="round" stroke-linejoin="round"/>
    </symbol>
    <symbol id="rating">
        <path d="M14.3413 18.4026L20.7733 21.436V28.556C20.7733 28.924 21.072 29.2226 21.44 29.2226H42.56C42.928 29.2226 43.2267 28.924 43.2267 28.556V21.436L48.7067 18.852V23.6226C47.932 23.8986 47.372 24.632 47.372 25.5013C47.372 26.6053 48.2693 27.5026 49.3733 27.5026C50.4773 27.5026 51.3747 26.6053 51.3747 25.5013C51.3747 24.632 50.8147 23.8986 50.04 23.6226V17.8C50.04 17.6826 50.0013 17.5786 49.9493 17.4826C49.936 17.4573 49.92 17.4373 49.9027 17.4146C49.8453 17.336 49.776 17.272 49.6907 17.2253C49.68 17.2186 49.6747 17.2053 49.6627 17.2L32.2893 8.82662C32.1053 8.73862 31.8933 8.73862 31.7093 8.82662L14.336 17.2C14.1053 17.3106 13.9573 17.5466 13.9587 17.8026C13.9613 18.06 14.1093 18.2933 14.3413 18.4026ZM41.8933 27.8893H22.1067V21.0133V18.5026L24.052 18.192C29.3253 17.344 34.6733 17.344 39.9467 18.192L41.892 18.5026V21.0133L41.8933 27.8893ZM49.3733 26.1693C49.0053 26.1693 48.7053 25.8693 48.7053 25.5013C48.7053 25.1333 49.0053 24.8333 49.3733 24.8333C49.7413 24.8333 50.0413 25.1333 50.0413 25.5013C50.0413 25.8693 49.7413 26.1693 49.3733 26.1693ZM32 10.1666L47.824 17.7933L43.2267 19.9613V17.9333C43.2267 17.8466 43.208 17.764 43.1773 17.6866C43.1667 17.66 43.148 17.6373 43.1333 17.612C43.108 17.5653 43.0813 17.5213 43.0453 17.4826C43.0227 17.4586 42.996 17.4413 42.9693 17.42C42.932 17.3893 42.8933 17.3613 42.8493 17.34C42.8173 17.324 42.784 17.316 42.7493 17.3053C42.72 17.296 42.6947 17.28 42.6627 17.2746L40.1573 16.8746C34.7413 16.004 29.252 16.004 23.8387 16.8746L21.332 17.2746C21.3013 17.28 21.276 17.296 21.2467 17.3053C21.212 17.316 21.1787 17.324 21.1467 17.34C21.1027 17.3613 21.0653 17.3906 21.028 17.42C21.0027 17.4413 20.9747 17.4586 20.952 17.4826C20.916 17.5213 20.8907 17.5666 20.8653 17.612C20.8507 17.6373 20.832 17.6586 20.8213 17.6866C20.7907 17.764 20.772 17.8453 20.772 17.9333V19.9613L16.1747 17.7933L32 10.1666Z" fill="currentColor" stroke="currentColor"/>
        <path d="M9.99999 55.3334H24.6667H39.3333H54C54.368 55.3334 54.6667 55.0347 54.6667 54.6667V40C54.6667 39.632 54.368 39.3334 54 39.3334H40V32C40 31.632 39.7013 31.3334 39.3333 31.3334H24.6667C24.2987 31.3334 24 31.632 24 32V42.6667H9.99999C9.63199 42.6667 9.33333 42.9654 9.33333 43.3334V54.6667C9.33333 55.0347 9.63199 55.3334 9.99999 55.3334ZM53.3333 40.6667V54H40V40.6667H53.3333ZM25.3333 32.6667H38.6667V40V54H25.3333V43.3334V32.6667ZM10.6667 44H24V54H10.6667V44Z" fill="currentColor" stroke="currentColor"/>
    </symbol>
    <symbol id="rating-sm">
        <path d="M12.6005 15.5273L18.0275 18.0867V24.0942C18.0275 24.4047 18.2795 24.6567 18.59 24.6567H36.41C36.7205 24.6567 36.9725 24.4047 36.9725 24.0942V18.0867L41.5962 15.9064V19.9317C40.9426 20.1645 40.4701 20.7833 40.4701 21.5168C40.4701 22.4483 41.2272 23.2054 42.1587 23.2054C43.0902 23.2054 43.8473 22.4483 43.8473 21.5168C43.8473 20.7833 43.3748 20.1645 42.7212 19.9317V15.0188C42.7212 14.9198 42.6886 14.832 42.6447 14.751C42.6335 14.7297 42.62 14.7128 42.6053 14.6937C42.557 14.6273 42.4985 14.5733 42.4265 14.5339C42.4175 14.5283 42.413 14.517 42.4028 14.5125L27.7441 7.44753C27.5888 7.37328 27.41 7.37328 27.2547 7.44753L12.596 14.5125C12.4013 14.6059 12.2765 14.805 12.2776 15.021C12.2798 15.2382 12.4047 15.435 12.6005 15.5273ZM35.8475 23.5317H19.1525V17.73V15.6117L20.7938 15.3495C25.2432 14.634 29.7556 14.634 34.205 15.3495L35.8463 15.6117V17.73L35.8475 23.5317ZM42.1587 22.0804C41.8482 22.0804 41.5951 21.8273 41.5951 21.5168C41.5951 21.2063 41.8482 20.9532 42.1587 20.9532C42.4692 20.9532 42.7223 21.2063 42.7223 21.5168C42.7223 21.8273 42.4692 22.0804 42.1587 22.0804ZM27.5 8.57816L40.8515 15.0132L36.9725 16.8424V15.1313C36.9725 15.0582 36.9567 14.9884 36.9308 14.9232C36.9218 14.9007 36.9061 14.8815 36.8937 14.8602C36.8723 14.8208 36.8498 14.7837 36.8195 14.751C36.8003 14.7308 36.7778 14.7162 36.7553 14.6982C36.7238 14.6723 36.6912 14.6487 36.6541 14.6307C36.6271 14.6172 36.599 14.6104 36.5697 14.6014C36.545 14.5935 36.5236 14.58 36.4966 14.5755L34.3827 14.238C29.813 13.5034 25.1813 13.5034 20.6138 14.238L18.4988 14.5755C18.473 14.58 18.4516 14.5935 18.4268 14.6014C18.3976 14.6104 18.3695 14.6172 18.3425 14.6307C18.3053 14.6487 18.2738 14.6734 18.2423 14.6982C18.221 14.7162 18.1973 14.7308 18.1782 14.751C18.1478 14.7837 18.1265 14.8219 18.1051 14.8602C18.0927 14.8815 18.077 14.8995 18.068 14.9232C18.0421 14.9884 18.0263 15.057 18.0263 15.1313V16.8424L14.1473 15.0132L27.5 8.57816Z" fill="currentColor" stroke="currentColor" stroke-width="0.7"/>
        <path d="M8.9375 46.6875H21.3125H33.6875H46.0625C46.373 46.6875 46.625 46.4355 46.625 46.125V33.75C46.625 33.4395 46.373 33.1875 46.0625 33.1875H34.25V27C34.25 26.6895 33.998 26.4375 33.6875 26.4375H21.3125C21.002 26.4375 20.75 26.6895 20.75 27V36H8.9375C8.627 36 8.375 36.252 8.375 36.5625V46.125C8.375 46.4355 8.627 46.6875 8.9375 46.6875ZM45.5 34.3125V45.5625H34.25V34.3125H45.5ZM21.875 27.5625H33.125V33.75V45.5625H21.875V36.5625V27.5625ZM9.5 37.125H20.75V45.5625H9.5V37.125Z" fill="currentColor" stroke="currentColor" stroke-width="0.7"/>
    </symbol>
    <symbol id="books">
        <path d="M21.504 41.041H24.6592C24.1377 41.3962 23.6407 41.7952 23.1857 42.2502C21.2765 44.1595 20.2265 46.7057 20.2265 49.42C20.2265 55.0042 24.7713 59.549 30.3555 59.549H34.517V62.3262C34.517 62.7217 34.783 63.0682 35.1662 63.1715C35.5477 63.2765 35.952 63.1067 36.1515 62.7637L39.466 57.022L42.7805 62.7795C42.9397 63.056 43.232 63.2187 43.54 63.2187C43.6152 63.2187 43.6905 63.21 43.7658 63.189C44.149 63.0875 44.415 62.741 44.415 62.3437V59.549H71.75C72.233 59.549 72.625 59.157 72.625 58.674V55.8582C72.625 55.6762 72.5567 55.517 72.4622 55.3787C72.4517 55.363 72.4552 55.342 72.4447 55.3262C71.141 53.6235 70.4515 51.5812 70.4515 49.42C70.4515 47.2587 71.141 45.2165 72.4447 43.5137C72.457 43.498 72.4517 43.477 72.4622 43.4612C72.5567 43.3212 72.625 43.162 72.625 42.9817V40.166C72.625 39.683 72.233 39.291 71.75 39.291H63.7735V37.3502C63.7735 37.3327 63.7647 37.317 63.763 37.2995C63.7612 37.2627 63.749 37.233 63.742 37.198C63.721 37.0807 63.679 36.9775 63.6177 36.8812C63.6055 36.862 63.6072 36.8375 63.5932 36.8182C62.2895 35.1155 61.6 33.0732 61.6 30.912C61.6 28.7507 62.2895 26.7085 63.5932 25.0057C63.6072 24.9865 63.6055 24.962 63.6177 24.9427C63.6807 24.8465 63.721 24.7432 63.742 24.626C63.749 24.591 63.7612 24.5595 63.763 24.5245C63.7647 24.507 63.7735 24.4912 63.7735 24.4737V21.658C63.7735 21.175 63.3815 20.783 62.8985 20.783H21.504C18.7897 20.783 16.2435 21.8347 14.3342 23.7422C12.425 25.6497 11.375 28.196 11.375 30.912C11.375 36.4962 15.9197 41.041 21.504 41.041ZM44.4115 50.295H68.768C68.8923 51.9575 69.3577 53.543 70.1592 54.9832H44.4115V50.295ZM68.7697 48.545H43.5365H35.392H29.148C28.665 48.545 28.273 48.937 28.273 49.42C28.273 49.903 28.665 50.295 29.148 50.295H34.517V54.9832H30.66C27.5922 54.9832 25.0967 52.4877 25.0967 49.42C25.0967 47.9307 25.6742 46.5342 26.719 45.4877C27.7847 44.436 29.1847 43.8567 30.6582 43.8567H70.1575C69.3577 45.297 68.894 46.8807 68.7697 48.545ZM42.6615 59.0642L40.2202 54.838C40.0627 54.5685 39.7757 54.4022 39.4642 54.4022C39.1528 54.4022 38.8657 54.5667 38.7082 54.8362L36.2652 59.0607V58.674V55.8582V50.295H42.6597V55.8582V58.674L42.6615 59.0642ZM44.4115 57.799V56.7332H70.875V57.799H44.4115ZM70.875 42.1067H30.6617C28.7245 42.1067 26.8887 42.8645 25.4887 44.247C24.108 45.6277 23.3485 47.4635 23.3485 49.42C23.3485 53.452 26.6297 56.7332 30.6617 56.7332H34.5187V57.799H30.3572C25.7372 57.799 21.9782 54.04 21.9782 49.42C21.9782 47.173 22.848 45.0677 24.4247 43.4875C26.0032 41.909 28.1085 41.041 30.3572 41.041H62.9002H70.875V42.1067ZM59.9042 30.037H20.2965C19.8135 30.037 19.4215 30.429 19.4215 30.912C19.4215 31.395 19.8135 31.787 20.2965 31.787H59.9042C60.0285 33.4477 60.48 35.0367 61.2797 36.4752H21.8103C18.7425 36.4752 16.247 33.9797 16.247 30.912C16.247 29.4227 16.8245 28.0262 17.8693 26.9797C18.935 25.928 20.335 25.3487 21.8085 25.3487H61.278C60.48 26.7855 60.0285 28.3762 59.9042 30.037ZM15.5715 24.9795C17.15 23.401 19.2552 22.533 21.504 22.533H62.0235V23.5987H21.8103C19.873 23.5987 18.0372 24.3565 16.6372 25.739C15.2565 27.1197 14.497 28.9555 14.497 30.912C14.497 34.944 17.7783 38.2252 21.8103 38.2252H62.0235V39.291H30.3555H21.504C16.884 39.291 13.125 35.532 13.125 30.912C13.125 28.6632 13.9947 26.558 15.5715 24.9795Z" fill="currentColor" stroke="currentColor" stroke-width="0.5"/>
    </symbol>
    <symbol id="books-sm">
        <path d="M16.384 31.2694H18.788C18.3906 31.54 18.012 31.844 17.6653 32.1907C16.2106 33.6454 15.4106 35.5854 15.4106 37.6534C15.4106 41.908 18.8733 45.3707 23.128 45.3707H26.2986V47.4867C26.2986 47.7881 26.5013 48.0521 26.7933 48.1307C27.084 48.2107 27.392 48.0814 27.544 47.8201L30.0693 43.4454L32.5946 47.8321C32.716 48.0427 32.9386 48.1667 33.1733 48.1667C33.2306 48.1667 33.288 48.1601 33.3453 48.1441C33.6373 48.0667 33.84 47.8027 33.84 47.5001V45.3707H54.6666C55.0346 45.3707 55.3333 45.0721 55.3333 44.7041V42.5587C55.3333 42.42 55.2813 42.2987 55.2093 42.1934C55.2013 42.1814 55.204 42.1654 55.196 42.1534C54.2026 40.856 53.6773 39.3 53.6773 37.6534C53.6773 36.0067 54.2026 34.4507 55.196 33.1534C55.2053 33.1414 55.2013 33.1254 55.2093 33.1134C55.2813 33.0067 55.3333 32.8854 55.3333 32.7481V30.6027C55.3333 30.2347 55.0346 29.936 54.6666 29.936H48.5893V28.4574C48.5893 28.4441 48.5826 28.432 48.5813 28.4187C48.58 28.3907 48.5706 28.3681 48.5653 28.3414C48.5493 28.2521 48.5173 28.1734 48.4706 28.1001C48.4613 28.0854 48.4626 28.0667 48.452 28.052C47.4586 26.7547 46.9333 25.1987 46.9333 23.552C46.9333 21.9054 47.4586 20.3494 48.452 19.052C48.4626 19.0374 48.4613 19.0187 48.4706 19.0041C48.5186 18.9307 48.5493 18.852 48.5653 18.7627C48.5706 18.736 48.58 18.712 48.5813 18.6854C48.5826 18.672 48.5893 18.66 48.5893 18.6467V16.5014C48.5893 16.1334 48.2906 15.8347 47.9226 15.8347H16.384C14.316 15.8347 12.376 16.6361 10.9213 18.0894C9.46663 19.5427 8.66663 21.4827 8.66663 23.552C8.66663 27.8067 12.1293 31.2694 16.384 31.2694ZM33.8373 38.32H52.3946C52.4893 39.5867 52.844 40.7947 53.4546 41.892H33.8373V38.32ZM52.396 36.9867H33.1706H26.9653H22.208C21.84 36.9867 21.5413 37.2854 21.5413 37.6534C21.5413 38.0214 21.84 38.32 22.208 38.32H26.2986V41.892H23.36C21.0226 41.892 19.1213 39.9907 19.1213 37.6534C19.1213 36.5187 19.5613 35.4547 20.3573 34.6574C21.1693 33.8561 22.236 33.4147 23.3586 33.4147H53.4533C52.844 34.5121 52.4906 35.7187 52.396 36.9867ZM32.504 45.0014L30.644 41.7814C30.524 41.576 30.3053 41.4494 30.068 41.4494C29.8306 41.4494 29.612 41.5747 29.492 41.7801L27.6306 44.9987V44.7041V42.5587V38.32H32.5026V42.5587V44.7041L32.504 45.0014ZM33.8373 44.0374V43.2254H54V44.0374H33.8373ZM54 32.0814H23.3613C21.8853 32.0814 20.4866 32.6587 19.42 33.7121C18.368 34.7641 17.7893 36.1627 17.7893 37.6534C17.7893 40.7254 20.2893 43.2254 23.3613 43.2254H26.3V44.0374H23.1293C19.6093 44.0374 16.7453 41.1734 16.7453 37.6534C16.7453 35.9414 17.408 34.3374 18.6093 33.1334C19.812 31.9307 21.416 31.2694 23.1293 31.2694H47.924H54V32.0814ZM45.6413 22.8854H15.464C15.096 22.8854 14.7973 23.184 14.7973 23.552C14.7973 23.92 15.096 24.2187 15.464 24.2187H45.6413C45.736 25.484 46.08 26.6947 46.6893 27.7907H16.6173C14.28 27.7907 12.3786 25.8894 12.3786 23.552C12.3786 22.4174 12.8186 21.3534 13.6146 20.556C14.4266 19.7547 15.4933 19.3134 16.616 19.3134H46.688C46.08 20.408 45.736 21.62 45.6413 22.8854ZM11.864 19.032C13.0666 17.8294 14.6706 17.1681 16.384 17.1681H47.256V17.98H16.6173C15.1413 17.98 13.7426 18.5574 12.676 19.6107C11.624 20.6627 11.0453 22.0614 11.0453 23.552C11.0453 26.624 13.5453 29.1241 16.6173 29.1241H47.256V29.936H23.128H16.384C12.864 29.936 9.99996 27.072 9.99996 23.552C9.99996 21.8387 10.6626 20.2347 11.864 19.032Z" fill="currentColor" stroke="currentColor" stroke-width="0.3"/>
    </symbol>
    <symbol id="hat">
        <path d="M45.8567 21.4803L46.3441 21.6898C46.5502 21.7785 46.7644 21.8203 46.9754 21.8203C47.5954 21.8203 48.1855 21.4577 48.446 20.852C48.795 20.0402 48.4199 19.0991 47.6082 18.7502L47.1208 18.5406C46.309 18.1915 45.368 18.5666 45.019 19.3784C44.6698 20.1902 45.045 21.1313 45.8567 21.4803Z" fill="currentColor"/>
        <path d="M59.9147 34.3081V25.0947C59.9147 24.2111 59.1985 23.4947 58.3147 23.4947H30.8951C30.0114 23.4947 29.2951 24.2111 29.2951 25.0947C29.2951 25.9784 30.0114 26.6947 30.8951 26.6947H50.542L30.8951 35.1414L7.52664 25.0947L30.8951 15.0481L41.3844 19.5576C42.1962 19.9066 43.1372 19.5315 43.4862 18.7196C43.8351 17.9079 43.46 16.9667 42.6482 16.6178L31.527 11.8365C31.1236 11.6631 30.6666 11.6631 30.2631 11.8365L2.8436 23.6248C2.25624 23.8774 1.87552 24.4554 1.87552 25.0947C1.87552 25.7341 2.25624 26.3122 2.8436 26.5647L30.2632 38.3528C30.4649 38.4395 30.6801 38.4829 30.8951 38.4829C31.1102 38.4829 31.3254 38.4395 31.527 38.3528L46.6182 31.8647L46.6186 42.9363C37.8122 51.084 23.9778 51.084 15.1717 42.9363L15.1718 40.1121C15.1718 39.2284 14.4554 38.512 13.5718 38.512C12.6882 38.512 11.9718 39.2284 11.9718 40.1119L11.9717 43.6218C11.9717 44.0516 12.1447 44.4635 12.4518 44.7644C17.4055 49.6195 23.9554 52.2934 30.895 52.2934C37.8347 52.2934 44.3847 49.6195 49.3384 44.7646C49.6454 44.4636 49.8186 44.0518 49.8186 43.6218L49.8182 30.4891L56.7146 27.5241V34.308C55.4112 34.9138 54.5048 36.2349 54.5048 37.7643C54.5048 39.3339 55.6762 43.4635 58.3146 43.4635C60.953 43.4635 62.1243 39.3339 62.1243 37.7643C62.1244 36.235 61.2182 34.9139 59.9147 34.3081ZM58.3147 39.8309C58.0039 39.2203 57.7049 38.2767 57.7049 37.7644C57.7049 37.4282 57.9785 37.1546 58.3147 37.1546C58.651 37.1546 58.9244 37.4282 58.9244 37.7644C58.9244 38.2767 58.6253 39.2203 58.3147 39.8309Z" fill="currentColor"/>
        <path d="M13.5718 36.8457C14.4555 36.8457 15.1718 36.1294 15.1718 35.2457V34.7133C15.1718 33.8296 14.4555 33.1133 13.5718 33.1133C12.6882 33.1133 11.9718 33.8296 11.9718 34.7133V35.2457C11.9718 36.1294 12.6882 36.8457 13.5718 36.8457Z" fill="currentColor"/>
    </symbol>
    <symbol id="hat-sm">
        <path d="M32.243 15.1034L32.5857 15.2507C32.7306 15.313 32.8812 15.3424 33.0295 15.3424C33.4655 15.3424 33.8804 15.0875 34.0636 14.6616C34.309 14.0908 34.0452 13.4291 33.4745 13.1837L33.1318 13.0364C32.561 12.7909 31.8993 13.0547 31.6539 13.6255C31.4085 14.1963 31.6723 14.858 32.243 15.1034Z" fill="currentColor"/>
        <path d="M42.1275 24.1229V17.6447C42.1275 17.0234 41.6239 16.5197 41.0025 16.5197H21.7231C21.1018 16.5197 20.5981 17.0234 20.5981 17.6447C20.5981 18.2661 21.1018 18.7697 21.7231 18.7697H35.5373L21.7231 24.7088L5.29217 17.6447L21.7231 10.5807L29.0984 13.7515C29.6692 13.9968 30.3308 13.7331 30.5763 13.1622C30.8216 12.5915 30.5578 11.9297 29.987 11.6844L22.1675 8.32254C21.8838 8.20059 21.5624 8.20059 21.2788 8.32254L1.99941 16.6112C1.58642 16.7888 1.31873 17.1952 1.31873 17.6447C1.31873 18.0943 1.58642 18.5008 1.99941 18.6783L21.2788 26.9668C21.4206 27.0278 21.5719 27.0583 21.7231 27.0583C21.8743 27.0583 22.0256 27.0278 22.1675 26.9668L32.7785 22.4049L32.7787 30.1896C26.5867 35.9185 16.8594 35.9185 10.6676 30.1896L10.6676 28.2038C10.6676 27.5825 10.164 27.0788 9.54264 27.0788C8.92136 27.0788 8.41764 27.5825 8.41764 28.2037L8.41759 30.6716C8.41759 30.9738 8.53926 31.2634 8.75514 31.475C12.2383 34.8887 16.8437 36.7688 21.7231 36.7688C26.6025 36.7688 31.208 34.8887 34.6911 31.4751C34.907 31.2635 35.0287 30.9739 35.0287 30.6716L35.0285 21.4376L39.8775 19.3529V24.1228C38.961 24.5488 38.3237 25.4777 38.3237 26.5531C38.3237 27.6567 39.1474 30.5602 41.0025 30.5602C42.8576 30.5602 43.6812 27.6567 43.6812 26.5531C43.6812 25.4777 43.044 24.5489 42.1275 24.1229ZM41.0025 28.0061C40.784 27.5767 40.5737 26.9133 40.5737 26.5531C40.5737 26.3167 40.7661 26.1243 41.0025 26.1243C41.239 26.1243 41.4312 26.3167 41.4312 26.5531C41.4312 26.9133 41.2209 27.5767 41.0025 28.0061Z" fill="currentColor"/>
        <path d="M9.54272 25.9071C10.1641 25.9071 10.6677 25.4034 10.6677 24.7821V24.4077C10.6677 23.7864 10.1641 23.2827 9.54272 23.2827C8.92139 23.2827 8.41772 23.7864 8.41772 24.4077V24.7821C8.41772 25.4034 8.92139 25.9071 9.54272 25.9071Z" fill="currentColor"/>
    </symbol>
</svg>

