<svg fill="none" xmlns="http://www.w3.org/2000/svg">
    <symbol id="burger">
        <path d="M4 16H28M4 8H28M4 24H28" stroke="#5A83ED" stroke-width="3" stroke-linecap="round" stroke-linejoin="round"/>
    </symbol>
    <symbol id="close">
        <path d="M25.3334 6.66675L6.66669 25.3334M6.66669 6.66675L25.3334 25.3334" stroke="#5A83ED" stroke-width="3" stroke-linecap="round" stroke-linejoin="round"/>
    </symbol>
    <symbol id="clock">
        <path d="M41.25 11.25H18.75C15.5625 11.25 13.125 8.8125 13.125 5.625H46.875C46.875 8.8125 44.4375 11.25 41.25 11.25Z" stroke="currentColor" stroke-width="3" stroke-miterlimit="10" stroke-linecap="round" stroke-linejoin="round"/>
        <path d="M18.75 48.75H41.25C44.4375 48.75 46.875 51.1875 46.875 54.375H13.125C13.125 51.1875 15.5625 48.75 18.75 48.75Z" stroke="currentColor" stroke-width="3" stroke-miterlimit="10" stroke-linecap="round" stroke-linejoin="round"/>
        <path d="M43.125 48.75V41.25C43.125 40.125 42.5625 39 41.625 38.25L34.6875 33C32.625 31.5 32.625 28.5 34.6875 27L41.625 21.75C42.5625 21 43.125 19.875 43.125 18.75V11.25" stroke="currentColor" stroke-width="3" stroke-miterlimit="10" stroke-linecap="round" stroke-linejoin="round"/>
        <path d="M16.875 11.25V18.75C16.875 19.875 17.4375 21 18.375 21.75L25.3125 27C27.375 28.5 27.375 31.5 25.3125 33L18.375 38.25C17.4375 39 16.875 40.125 16.875 41.25V48.75" stroke="currentColor" stroke-width="3" stroke-miterlimit="10" stroke-linecap="round" stroke-linejoin="round"/>
        <path d="M20.625 48.75L30 39.375L39.375 48.75H20.625Z" stroke="currentColor" stroke-width="3" stroke-miterlimit="10" stroke-linecap="round" stroke-linejoin="round"/>
        <path d="M30 22.5L24.375 18.75H35.625L30 22.5Z" stroke="currentColor" stroke-width="3" stroke-miterlimit="10" stroke-linecap="round" stroke-linejoin="round"/>
    </symbol>
    <symbol id="rating">
        <path d="M14.3413 18.4026L20.7733 21.436V28.556C20.7733 28.924 21.072 29.2226 21.44 29.2226H42.56C42.928 29.2226 43.2267 28.924 43.2267 28.556V21.436L48.7067 18.852V23.6226C47.932 23.8986 47.372 24.632 47.372 25.5013C47.372 26.6053 48.2693 27.5026 49.3733 27.5026C50.4773 27.5026 51.3747 26.6053 51.3747 25.5013C51.3747 24.632 50.8147 23.8986 50.04 23.6226V17.8C50.04 17.6826 50.0013 17.5786 49.9493 17.4826C49.936 17.4573 49.92 17.4373 49.9027 17.4146C49.8453 17.336 49.776 17.272 49.6907 17.2253C49.68 17.2186 49.6747 17.2053 49.6627 17.2L32.2893 8.82662C32.1053 8.73862 31.8933 8.73862 31.7093 8.82662L14.336 17.2C14.1053 17.3106 13.9573 17.5466 13.9587 17.8026C13.9613 18.06 14.1093 18.2933 14.3413 18.4026ZM41.8933 27.8893H22.1067V21.0133V18.5026L24.052 18.192C29.3253 17.344 34.6733 17.344 39.9467 18.192L41.892 18.5026V21.0133L41.8933 27.8893ZM49.3733 26.1693C49.0053 26.1693 48.7053 25.8693 48.7053 25.5013C48.7053 25.1333 49.0053 24.8333 49.3733 24.8333C49.7413 24.8333 50.0413 25.1333 50.0413 25.5013C50.0413 25.8693 49.7413 26.1693 49.3733 26.1693ZM32 10.1666L47.824 17.7933L43.2267 19.9613V17.9333C43.2267 17.8466 43.208 17.764 43.1773 17.6866C43.1667 17.66 43.148 17.6373 43.1333 17.612C43.108 17.5653 43.0813 17.5213 43.0453 17.4826C43.0227 17.4586 42.996 17.4413 42.9693 17.42C42.932 17.3893 42.8933 17.3613 42.8493 17.34C42.8173 17.324 42.784 17.316 42.7493 17.3053C42.72 17.296 42.6947 17.28 42.6627 17.2746L40.1573 16.8746C34.7413 16.004 29.252 16.004 23.8387 16.8746L21.332 17.2746C21.3013 17.28 21.276 17.296 21.2467 17.3053C21.212 17.316 21.1787 17.324 21.1467 17.34C21.1027 17.3613 21.0653 17.3906 21.028 17.42C21.0027 17.4413 20.9747 17.4586 20.952 17.4826C20.916 17.5213 20.8907 17.5666 20.8653 17.612C20.8507 17.6373 20.832 17.6586 20.8213 17.6866C20.7907 17.764 20.772 17.8453 20.772 17.9333V19.9613L16.1747 17.7933L32 10.1666Z" fill="currentColor" stroke="currentColor"/>
        <path d="M9.99999 55.3334H24.6667H39.3333H54C54.368 55.3334 54.6667 55.0347 54.6667 54.6667V40C54.6667 39.632 54.368 39.3334 54 39.3334H40V32C40 31.632 39.7013 31.3334 39.3333 31.3334H24.6667C24.2987 31.3334 24 31.632 24 32V42.6667H9.99999C9.63199 42.6667 9.33333 42.9654 9.33333 43.3334V54.6667C9.33333 55.0347 9.63199 55.3334 9.99999 55.3334ZM53.3333 40.6667V54H40V40.6667H53.3333ZM25.3333 32.6667H38.6667V40V54H25.3333V43.3334V32.6667ZM10.6667 44H24V54H10.6667V44Z" fill="currentColor" stroke="currentColor"/>
    </symbol>
    <symbol id="books">
        <path d="M21.504 41.041H24.6592C24.1377 41.3962 23.6407 41.7952 23.1857 42.2502C21.2765 44.1595 20.2265 46.7057 20.2265 49.42C20.2265 55.0042 24.7713 59.549 30.3555 59.549H34.517V62.3262C34.517 62.7217 34.783 63.0682 35.1662 63.1715C35.5477 63.2765 35.952 63.1067 36.1515 62.7637L39.466 57.022L42.7805 62.7795C42.9397 63.056 43.232 63.2187 43.54 63.2187C43.6152 63.2187 43.6905 63.21 43.7658 63.189C44.149 63.0875 44.415 62.741 44.415 62.3437V59.549H71.75C72.233 59.549 72.625 59.157 72.625 58.674V55.8582C72.625 55.6762 72.5567 55.517 72.4622 55.3787C72.4517 55.363 72.4552 55.342 72.4447 55.3262C71.141 53.6235 70.4515 51.5812 70.4515 49.42C70.4515 47.2587 71.141 45.2165 72.4447 43.5137C72.457 43.498 72.4517 43.477 72.4622 43.4612C72.5567 43.3212 72.625 43.162 72.625 42.9817V40.166C72.625 39.683 72.233 39.291 71.75 39.291H63.7735V37.3502C63.7735 37.3327 63.7647 37.317 63.763 37.2995C63.7612 37.2627 63.749 37.233 63.742 37.198C63.721 37.0807 63.679 36.9775 63.6177 36.8812C63.6055 36.862 63.6072 36.8375 63.5932 36.8182C62.2895 35.1155 61.6 33.0732 61.6 30.912C61.6 28.7507 62.2895 26.7085 63.5932 25.0057C63.6072 24.9865 63.6055 24.962 63.6177 24.9427C63.6807 24.8465 63.721 24.7432 63.742 24.626C63.749 24.591 63.7612 24.5595 63.763 24.5245C63.7647 24.507 63.7735 24.4912 63.7735 24.4737V21.658C63.7735 21.175 63.3815 20.783 62.8985 20.783H21.504C18.7897 20.783 16.2435 21.8347 14.3342 23.7422C12.425 25.6497 11.375 28.196 11.375 30.912C11.375 36.4962 15.9197 41.041 21.504 41.041ZM44.4115 50.295H68.768C68.8923 51.9575 69.3577 53.543 70.1592 54.9832H44.4115V50.295ZM68.7697 48.545H43.5365H35.392H29.148C28.665 48.545 28.273 48.937 28.273 49.42C28.273 49.903 28.665 50.295 29.148 50.295H34.517V54.9832H30.66C27.5922 54.9832 25.0967 52.4877 25.0967 49.42C25.0967 47.9307 25.6742 46.5342 26.719 45.4877C27.7847 44.436 29.1847 43.8567 30.6582 43.8567H70.1575C69.3577 45.297 68.894 46.8807 68.7697 48.545ZM42.6615 59.0642L40.2202 54.838C40.0627 54.5685 39.7757 54.4022 39.4642 54.4022C39.1528 54.4022 38.8657 54.5667 38.7082 54.8362L36.2652 59.0607V58.674V55.8582V50.295H42.6597V55.8582V58.674L42.6615 59.0642ZM44.4115 57.799V56.7332H70.875V57.799H44.4115ZM70.875 42.1067H30.6617C28.7245 42.1067 26.8887 42.8645 25.4887 44.247C24.108 45.6277 23.3485 47.4635 23.3485 49.42C23.3485 53.452 26.6297 56.7332 30.6617 56.7332H34.5187V57.799H30.3572C25.7372 57.799 21.9782 54.04 21.9782 49.42C21.9782 47.173 22.848 45.0677 24.4247 43.4875C26.0032 41.909 28.1085 41.041 30.3572 41.041H62.9002H70.875V42.1067ZM59.9042 30.037H20.2965C19.8135 30.037 19.4215 30.429 19.4215 30.912C19.4215 31.395 19.8135 31.787 20.2965 31.787H59.9042C60.0285 33.4477 60.48 35.0367 61.2797 36.4752H21.8103C18.7425 36.4752 16.247 33.9797 16.247 30.912C16.247 29.4227 16.8245 28.0262 17.8693 26.9797C18.935 25.928 20.335 25.3487 21.8085 25.3487H61.278C60.48 26.7855 60.0285 28.3762 59.9042 30.037ZM15.5715 24.9795C17.15 23.401 19.2552 22.533 21.504 22.533H62.0235V23.5987H21.8103C19.873 23.5987 18.0372 24.3565 16.6372 25.739C15.2565 27.1197 14.497 28.9555 14.497 30.912C14.497 34.944 17.7783 38.2252 21.8103 38.2252H62.0235V39.291H30.3555H21.504C16.884 39.291 13.125 35.532 13.125 30.912C13.125 28.6632 13.9947 26.558 15.5715 24.9795Z" fill="currentColor" stroke="currentColor" stroke-width="0.5"/>
    </symbol>
    <symbol id="hat">
        <path d="M45.8567 21.4803L46.3441 21.6898C46.5502 21.7785 46.7644 21.8203 46.9754 21.8203C47.5954 21.8203 48.1855 21.4577 48.446 20.852C48.795 20.0402 48.4199 19.0991 47.6082 18.7502L47.1208 18.5406C46.309 18.1915 45.368 18.5666 45.019 19.3784C44.6698 20.1902 45.045 21.1313 45.8567 21.4803Z" fill="currentColor"/>
        <path d="M59.9147 34.3081V25.0947C59.9147 24.2111 59.1985 23.4947 58.3147 23.4947H30.8951C30.0114 23.4947 29.2951 24.2111 29.2951 25.0947C29.2951 25.9784 30.0114 26.6947 30.8951 26.6947H50.542L30.8951 35.1414L7.52664 25.0947L30.8951 15.0481L41.3844 19.5576C42.1962 19.9066 43.1372 19.5315 43.4862 18.7196C43.8351 17.9079 43.46 16.9667 42.6482 16.6178L31.527 11.8365C31.1236 11.6631 30.6666 11.6631 30.2631 11.8365L2.8436 23.6248C2.25624 23.8774 1.87552 24.4554 1.87552 25.0947C1.87552 25.7341 2.25624 26.3122 2.8436 26.5647L30.2632 38.3528C30.4649 38.4395 30.6801 38.4829 30.8951 38.4829C31.1102 38.4829 31.3254 38.4395 31.527 38.3528L46.6182 31.8647L46.6186 42.9363C37.8122 51.084 23.9778 51.084 15.1717 42.9363L15.1718 40.1121C15.1718 39.2284 14.4554 38.512 13.5718 38.512C12.6882 38.512 11.9718 39.2284 11.9718 40.1119L11.9717 43.6218C11.9717 44.0516 12.1447 44.4635 12.4518 44.7644C17.4055 49.6195 23.9554 52.2934 30.895 52.2934C37.8347 52.2934 44.3847 49.6195 49.3384 44.7646C49.6454 44.4636 49.8186 44.0518 49.8186 43.6218L49.8182 30.4891L56.7146 27.5241V34.308C55.4112 34.9138 54.5048 36.2349 54.5048 37.7643C54.5048 39.3339 55.6762 43.4635 58.3146 43.4635C60.953 43.4635 62.1243 39.3339 62.1243 37.7643C62.1244 36.235 61.2182 34.9139 59.9147 34.3081ZM58.3147 39.8309C58.0039 39.2203 57.7049 38.2767 57.7049 37.7644C57.7049 37.4282 57.9785 37.1546 58.3147 37.1546C58.651 37.1546 58.9244 37.4282 58.9244 37.7644C58.9244 38.2767 58.6253 39.2203 58.3147 39.8309Z" fill="currentColor"/>
        <path d="M13.5718 36.8457C14.4555 36.8457 15.1718 36.1294 15.1718 35.2457V34.7133C15.1718 33.8296 14.4555 33.1133 13.5718 33.1133C12.6882 33.1133 11.9718 33.8296 11.9718 34.7133V35.2457C11.9718 36.1294 12.6882 36.8457 13.5718 36.8457Z" fill="currentColor"/>
    </symbol>
</svg>

